<svg xmlns="http://www.w3.org/2000/svg" xmlns:xlink="http://www.w3.org/1999/xlink" width="500" zoomAndPan="magnify" viewBox="0 0 375 374.999991" height="500" preserveAspectRatio="xMidYMid meet" version="1.0"><defs><clipPath id="id1"><path d="M 79 88 L 283 88 L 283 292 L 79 292 Z M 79 88 " clip-rule="nonzero"/></clipPath><clipPath id="id2"><path d="M 109.492188 261.851562 C 149.101562 301.4375 213.269531 301.4375 252.878906 261.851562 C 292.488281 222.265625 292.488281 158.136719 252.878906 118.546875 C 213.269531 78.960938 149.101562 78.960938 109.492188 118.546875 C 69.882812 158.046875 69.882812 222.265625 109.492188 261.851562 Z M 109.492188 261.851562 " clip-rule="evenodd"/></clipPath><clipPath id="id3"><path d="M 13 137 L 363 137 L 363 248 L 13 248 Z M 13 137 " clip-rule="nonzero"/></clipPath><clipPath id="id4"><path d="M 76.042969 196.753906 C 50.429688 205.285156 35.289062 212.675781 30.449219 219.011719 C 28.160156 222 34.144531 224.640625 41.628906 223.761719 C 49.988281 222.878906 60.289062 218.21875 66.097656 217.164062 C 77.101562 215.140625 90.480469 221.648438 95.761719 222.265625 C 101.042969 222.878906 109.402344 207.484375 126.65625 211.269531 C 143.90625 215.140625 148.132812 204.40625 159.488281 203.351562 C 170.84375 202.296875 175.15625 209.332031 193.464844 203.703125 C 211.773438 198.074219 213.269531 187.78125 225.0625 187.605469 C 236.859375 187.515625 244.78125 190.417969 257.542969 185.933594 C 270.304688 181.445312 272.066406 174.847656 280.515625 174.9375 C 288.964844 175.023438 313.964844 174.671875 317.925781 167.636719 C 321.886719 160.597656 323.207031 158.222656 329.457031 156.550781 C 333.417969 155.496094 335.96875 153.382812 335.707031 151.007812 C 334.472656 140.363281 285.355469 150.21875 277.433594 151.535156 C 277.433594 151.535156 298.914062 145.378906 313.347656 143.09375 C 327.785156 140.804688 347.234375 138.78125 356.390625 142.300781 C 365.632812 145.90625 365.105469 156.375 353.308594 162.710938 C 341.515625 169.132812 348.203125 186.460938 332.097656 188.484375 C 315.988281 190.507812 300.410156 177.488281 293.015625 186.726562 C 285.621094 195.960938 286.855469 223.496094 254.902344 215.84375 C 222.949219 208.191406 220.925781 205.636719 209.921875 220.945312 C 198.921875 236.253906 176.476562 215.316406 166 215.050781 C 155.527344 214.789062 146.285156 251.296875 126.921875 242.144531 C 107.554688 232.996094 111.339844 227.808594 98.050781 233.4375 C 84.757812 239.066406 78.859375 240.296875 70.675781 235.195312 C 62.488281 230.09375 51.75 246.984375 41.011719 242.058594 C 30.273438 237.132812 34.851562 231.324219 22.351562 229.832031 C 13.988281 228.773438 11.699219 226.488281 14.339844 222.792969 C 22.617188 211.707031 62.226562 200.710938 76.042969 196.753906 Z M 69.792969 203.96875 C 69.179688 206.253906 71.90625 207.132812 73.578125 206.429688 C 75.25 205.726562 75.867188 203.351562 73.226562 202.207031 C 71.996094 201.679688 70.324219 201.945312 69.792969 203.96875 Z M 19.796875 235.988281 C 15.484375 236.339844 17.773438 240.738281 21.207031 241.617188 C 26.136719 242.9375 27.808594 240.5625 26.664062 238.453125 C 25.785156 237.042969 23.496094 235.722656 19.796875 235.988281 Z M 153.503906 245.578125 C 154.03125 246.457031 155.085938 246.808594 156.054688 247.074219 C 157.289062 247.335938 159.488281 246.632812 159.75 244.433594 C 160.542969 237.835938 150.949219 241.355469 153.503906 245.578125 Z M 160.808594 231.238281 C 159.222656 238.539062 165.386719 241.441406 170.578125 240.210938 C 174.1875 239.332031 177.355469 236.691406 178.058594 233.523438 C 179.820312 225.257812 163.535156 218.921875 160.808594 231.238281 Z M 302.609375 214.082031 C 307.449219 221.914062 328.398438 218.128906 324 207.046875 C 322.324219 202.734375 316.867188 199.039062 311.851562 198.777344 C 303.839844 198.335938 299.441406 208.980469 302.609375 214.082031 Z M 286.414062 144.234375 C 290.992188 145.996094 295.390625 141.070312 293.277344 138.605469 C 289.054688 133.589844 281.132812 142.210938 286.414062 144.234375 Z M 286.414062 144.234375 " clip-rule="evenodd"/></clipPath><linearGradient x1="9386.897826" gradientTransform="matrix(0.0249539, 0, 0, -0.0249395, -26.824099, -15.68316)" y1="-11986.62577" x2="7913.631347" gradientUnits="userSpaceOnUse" y2="-4697.938621" id="id5"><stop stop-opacity="1" stop-color="rgb(48.535156%, 17.23175%, 37.420654%)" offset="0"/><stop stop-opacity="1" stop-color="rgb(48.748779%, 17.381287%, 37.29248%)" offset="0.00390625"/><stop stop-opacity="1" stop-color="rgb(48.962402%, 17.530823%, 37.165833%)" offset="0.0078125"/><stop stop-opacity="1" stop-color="rgb(49.1745%, 17.680359%, 37.037659%)" offset="0.0117188"/><stop stop-opacity="1" stop-color="rgb(49.388123%, 17.829895%, 36.911011%)" offset="0.015625"/><stop stop-opacity="1" stop-color="rgb(49.601746%, 17.979431%, 36.782837%)" offset="0.0195313"/><stop stop-opacity="1" stop-color="rgb(49.815369%, 18.128967%, 36.656189%)" offset="0.0234375"/><stop stop-opacity="1" stop-color="rgb(50.028992%, 18.278503%, 36.528015%)" offset="0.0273437"/><stop stop-opacity="1" stop-color="rgb(50.242615%, 18.42804%, 36.401367%)" offset="0.03125"/><stop stop-opacity="1" stop-color="rgb(50.456238%, 18.577576%, 36.273193%)" offset="0.0351563"/><stop stop-opacity="1" stop-color="rgb(50.669861%, 18.727112%, 36.146545%)" offset="0.0390625"/><stop stop-opacity="1" stop-color="rgb(50.883484%, 18.876648%, 36.018372%)" offset="0.0429687"/><stop stop-opacity="1" stop-color="rgb(51.097107%, 19.02771%, 35.891724%)" offset="0.046875"/><stop stop-opacity="1" stop-color="rgb(51.31073%, 19.177246%, 35.76355%)" offset="0.0507813"/><stop stop-opacity="1" stop-color="rgb(51.524353%, 19.326782%, 35.636902%)" offset="0.0546875"/><stop stop-opacity="1" stop-color="rgb(51.737976%, 19.476318%, 35.508728%)" offset="0.0585937"/><stop stop-opacity="1" stop-color="rgb(51.951599%, 19.625854%, 35.38208%)" offset="0.0625"/><stop stop-opacity="1" stop-color="rgb(52.163696%, 19.775391%, 35.253906%)" offset="0.0664063"/><stop stop-opacity="1" stop-color="rgb(52.377319%, 19.924927%, 35.127258%)" offset="0.0703125"/><stop stop-opacity="1" stop-color="rgb(52.590942%, 20.074463%, 34.999084%)" offset="0.0742187"/><stop stop-opacity="1" stop-color="rgb(52.804565%, 20.223999%, 34.872437%)" offset="0.078125"/><stop stop-opacity="1" stop-color="rgb(53.018188%, 20.373535%, 34.744263%)" offset="0.0820312"/><stop stop-opacity="1" stop-color="rgb(53.231812%, 20.523071%, 34.617615%)" offset="0.0859375"/><stop stop-opacity="1" stop-color="rgb(53.445435%, 20.672607%, 34.489441%)" offset="0.0898438"/><stop stop-opacity="1" stop-color="rgb(53.659058%, 20.822144%, 34.362793%)" offset="0.09375"/><stop stop-opacity="1" stop-color="rgb(53.872681%, 20.97168%, 34.234619%)" offset="0.0976562"/><stop stop-opacity="1" stop-color="rgb(54.086304%, 21.121216%, 34.107971%)" offset="0.101562"/><stop stop-opacity="1" stop-color="rgb(54.299927%, 21.270752%, 33.979797%)" offset="0.105469"/><stop stop-opacity="1" stop-color="rgb(54.51355%, 21.421814%, 33.851624%)" offset="0.109375"/><stop stop-opacity="1" stop-color="rgb(54.727173%, 21.57135%, 33.72345%)" offset="0.113281"/><stop stop-opacity="1" stop-color="rgb(54.940796%, 21.720886%, 33.596802%)" offset="0.117188"/><stop stop-opacity="1" stop-color="rgb(55.152893%, 21.870422%, 33.468628%)" offset="0.121094"/><stop stop-opacity="1" stop-color="rgb(55.366516%, 22.019958%, 33.34198%)" offset="0.125"/><stop stop-opacity="1" stop-color="rgb(55.580139%, 22.169495%, 33.213806%)" offset="0.128906"/><stop stop-opacity="1" stop-color="rgb(55.793762%, 22.319031%, 33.087158%)" offset="0.132813"/><stop stop-opacity="1" stop-color="rgb(56.007385%, 22.468567%, 32.958984%)" offset="0.136719"/><stop stop-opacity="1" stop-color="rgb(56.221008%, 22.618103%, 32.832336%)" offset="0.140625"/><stop stop-opacity="1" stop-color="rgb(56.434631%, 22.767639%, 32.704163%)" offset="0.144531"/><stop stop-opacity="1" stop-color="rgb(56.648254%, 22.917175%, 32.577515%)" offset="0.148438"/><stop stop-opacity="1" stop-color="rgb(56.861877%, 23.066711%, 32.449341%)" offset="0.152344"/><stop stop-opacity="1" stop-color="rgb(57.0755%, 23.216248%, 32.322693%)" offset="0.15625"/><stop stop-opacity="1" stop-color="rgb(57.289124%, 23.365784%, 32.194519%)" offset="0.160156"/><stop stop-opacity="1" stop-color="rgb(57.502747%, 23.51532%, 32.067871%)" offset="0.164062"/><stop stop-opacity="1" stop-color="rgb(57.71637%, 23.664856%, 31.939697%)" offset="0.167969"/><stop stop-opacity="1" stop-color="rgb(57.929993%, 23.815918%, 31.813049%)" offset="0.171875"/><stop stop-opacity="1" stop-color="rgb(58.14209%, 23.965454%, 31.684875%)" offset="0.175781"/><stop stop-opacity="1" stop-color="rgb(58.355713%, 24.11499%, 31.558228%)" offset="0.179688"/><stop stop-opacity="1" stop-color="rgb(58.569336%, 24.264526%, 31.430054%)" offset="0.183594"/><stop stop-opacity="1" stop-color="rgb(58.782959%, 24.414062%, 31.303406%)" offset="0.1875"/><stop stop-opacity="1" stop-color="rgb(58.996582%, 24.563599%, 31.175232%)" offset="0.191406"/><stop stop-opacity="1" stop-color="rgb(59.210205%, 24.713135%, 31.048584%)" offset="0.195312"/><stop stop-opacity="1" stop-color="rgb(59.423828%, 24.862671%, 30.92041%)" offset="0.199219"/><stop stop-opacity="1" stop-color="rgb(59.637451%, 25.012207%, 30.793762%)" offset="0.203125"/><stop stop-opacity="1" stop-color="rgb(59.851074%, 25.161743%, 30.665588%)" offset="0.207031"/><stop stop-opacity="1" stop-color="rgb(60.064697%, 25.311279%, 30.53894%)" offset="0.210938"/><stop stop-opacity="1" stop-color="rgb(60.27832%, 25.460815%, 30.410767%)" offset="0.214844"/><stop stop-opacity="1" stop-color="rgb(60.491943%, 25.610352%, 30.284119%)" offset="0.21875"/><stop stop-opacity="1" stop-color="rgb(60.704041%, 25.759888%, 30.155945%)" offset="0.222656"/><stop stop-opacity="1" stop-color="rgb(60.917664%, 25.909424%, 30.029297%)" offset="0.226563"/><stop stop-opacity="1" stop-color="rgb(61.131287%, 26.05896%, 29.901123%)" offset="0.230469"/><stop stop-opacity="1" stop-color="rgb(61.34491%, 26.210022%, 29.774475%)" offset="0.234375"/><stop stop-opacity="1" stop-color="rgb(61.558533%, 26.359558%, 29.646301%)" offset="0.238281"/><stop stop-opacity="1" stop-color="rgb(61.772156%, 26.509094%, 29.518127%)" offset="0.242188"/><stop stop-opacity="1" stop-color="rgb(61.985779%, 26.65863%, 29.389954%)" offset="0.246094"/><stop stop-opacity="1" stop-color="rgb(62.199402%, 26.808167%, 29.263306%)" offset="0.25"/><stop stop-opacity="1" stop-color="rgb(62.413025%, 26.957703%, 29.135132%)" offset="0.253906"/><stop stop-opacity="1" stop-color="rgb(62.626648%, 27.107239%, 29.008484%)" offset="0.257812"/><stop stop-opacity="1" stop-color="rgb(62.840271%, 27.256775%, 28.88031%)" offset="0.261719"/><stop stop-opacity="1" stop-color="rgb(63.053894%, 27.406311%, 28.753662%)" offset="0.265625"/><stop stop-opacity="1" stop-color="rgb(63.267517%, 27.555847%, 28.625488%)" offset="0.269531"/><stop stop-opacity="1" stop-color="rgb(63.48114%, 27.705383%, 28.49884%)" offset="0.273437"/><stop stop-opacity="1" stop-color="rgb(63.693237%, 27.854919%, 28.370667%)" offset="0.277344"/><stop stop-opacity="1" stop-color="rgb(63.90686%, 28.004456%, 28.244019%)" offset="0.28125"/><stop stop-opacity="1" stop-color="rgb(64.120483%, 28.153992%, 28.115845%)" offset="0.285156"/><stop stop-opacity="1" stop-color="rgb(64.334106%, 28.305054%, 27.989197%)" offset="0.289062"/><stop stop-opacity="1" stop-color="rgb(64.547729%, 28.45459%, 27.861023%)" offset="0.292969"/><stop stop-opacity="1" stop-color="rgb(64.761353%, 28.604126%, 27.734375%)" offset="0.296875"/><stop stop-opacity="1" stop-color="rgb(64.974976%, 28.753662%, 27.606201%)" offset="0.300781"/><stop stop-opacity="1" stop-color="rgb(65.188599%, 28.903198%, 27.479553%)" offset="0.304688"/><stop stop-opacity="1" stop-color="rgb(65.402222%, 29.052734%, 27.351379%)" offset="0.308594"/><stop stop-opacity="1" stop-color="rgb(65.615845%, 29.202271%, 27.224731%)" offset="0.3125"/><stop stop-opacity="1" stop-color="rgb(65.829468%, 29.351807%, 27.096558%)" offset="0.316406"/><stop stop-opacity="1" stop-color="rgb(66.043091%, 29.501343%, 26.96991%)" offset="0.320312"/><stop stop-opacity="1" stop-color="rgb(66.256714%, 29.650879%, 26.841736%)" offset="0.324219"/><stop stop-opacity="1" stop-color="rgb(66.470337%, 29.800415%, 26.715088%)" offset="0.328125"/><stop stop-opacity="1" stop-color="rgb(66.682434%, 29.949951%, 26.586914%)" offset="0.332031"/><stop stop-opacity="1" stop-color="rgb(66.896057%, 30.099487%, 26.460266%)" offset="0.335938"/><stop stop-opacity="1" stop-color="rgb(67.10968%, 30.249023%, 26.332092%)" offset="0.339844"/><stop stop-opacity="1" stop-color="rgb(67.323303%, 30.39856%, 26.205444%)" offset="0.34375"/><stop stop-opacity="1" stop-color="rgb(67.536926%, 30.548096%, 26.077271%)" offset="0.347656"/><stop stop-opacity="1" stop-color="rgb(67.750549%, 30.699158%, 25.950623%)" offset="0.351563"/><stop stop-opacity="1" stop-color="rgb(67.964172%, 30.848694%, 25.822449%)" offset="0.355469"/><stop stop-opacity="1" stop-color="rgb(68.177795%, 30.99823%, 25.695801%)" offset="0.359375"/><stop stop-opacity="1" stop-color="rgb(68.391418%, 31.147766%, 25.567627%)" offset="0.363281"/><stop stop-opacity="1" stop-color="rgb(68.605042%, 31.297302%, 25.440979%)" offset="0.367188"/><stop stop-opacity="1" stop-color="rgb(68.818665%, 31.446838%, 25.312805%)" offset="0.371094"/><stop stop-opacity="1" stop-color="rgb(69.032288%, 31.596375%, 25.184631%)" offset="0.375"/><stop stop-opacity="1" stop-color="rgb(69.245911%, 31.745911%, 25.056458%)" offset="0.378906"/><stop stop-opacity="1" stop-color="rgb(69.459534%, 31.895447%, 24.92981%)" offset="0.382813"/><stop stop-opacity="1" stop-color="rgb(69.671631%, 32.044983%, 24.801636%)" offset="0.386719"/><stop stop-opacity="1" stop-color="rgb(69.885254%, 32.194519%, 24.674988%)" offset="0.390625"/><stop stop-opacity="1" stop-color="rgb(70.098877%, 32.344055%, 24.546814%)" offset="0.394531"/><stop stop-opacity="1" stop-color="rgb(70.3125%, 32.493591%, 24.420166%)" offset="0.398438"/><stop stop-opacity="1" stop-color="rgb(70.526123%, 32.643127%, 24.291992%)" offset="0.402344"/><stop stop-opacity="1" stop-color="rgb(70.739746%, 32.792664%, 24.165344%)" offset="0.40625"/><stop stop-opacity="1" stop-color="rgb(70.953369%, 32.9422%, 24.03717%)" offset="0.410156"/><stop stop-opacity="1" stop-color="rgb(71.166992%, 33.093262%, 23.910522%)" offset="0.414063"/><stop stop-opacity="1" stop-color="rgb(71.380615%, 33.242798%, 23.782349%)" offset="0.417969"/><stop stop-opacity="1" stop-color="rgb(71.594238%, 33.392334%, 23.655701%)" offset="0.421875"/><stop stop-opacity="1" stop-color="rgb(71.807861%, 33.54187%, 23.527527%)" offset="0.425781"/><stop stop-opacity="1" stop-color="rgb(72.021484%, 33.691406%, 23.400879%)" offset="0.429687"/><stop stop-opacity="1" stop-color="rgb(72.233582%, 33.840942%, 23.272705%)" offset="0.433594"/><stop stop-opacity="1" stop-color="rgb(72.447205%, 33.990479%, 23.146057%)" offset="0.4375"/><stop stop-opacity="1" stop-color="rgb(72.660828%, 34.140015%, 23.017883%)" offset="0.441406"/><stop stop-opacity="1" stop-color="rgb(72.874451%, 34.289551%, 22.891235%)" offset="0.445313"/><stop stop-opacity="1" stop-color="rgb(73.088074%, 34.439087%, 22.763062%)" offset="0.449219"/><stop stop-opacity="1" stop-color="rgb(73.301697%, 34.588623%, 22.636414%)" offset="0.453125"/><stop stop-opacity="1" stop-color="rgb(73.51532%, 34.738159%, 22.50824%)" offset="0.457031"/><stop stop-opacity="1" stop-color="rgb(73.728943%, 34.887695%, 22.381592%)" offset="0.460937"/><stop stop-opacity="1" stop-color="rgb(73.942566%, 35.037231%, 22.253418%)" offset="0.464844"/><stop stop-opacity="1" stop-color="rgb(74.156189%, 35.186768%, 22.12677%)" offset="0.46875"/><stop stop-opacity="1" stop-color="rgb(74.369812%, 35.336304%, 21.998596%)" offset="0.472656"/><stop stop-opacity="1" stop-color="rgb(74.583435%, 35.487366%, 21.871948%)" offset="0.476563"/><stop stop-opacity="1" stop-color="rgb(74.797058%, 35.636902%, 21.743774%)" offset="0.480469"/><stop stop-opacity="1" stop-color="rgb(75.010681%, 35.786438%, 21.617126%)" offset="0.484375"/><stop stop-opacity="1" stop-color="rgb(75.222778%, 35.935974%, 21.488953%)" offset="0.488281"/><stop stop-opacity="1" stop-color="rgb(75.436401%, 36.08551%, 21.362305%)" offset="0.492188"/><stop stop-opacity="1" stop-color="rgb(75.650024%, 36.235046%, 21.234131%)" offset="0.496094"/><stop stop-opacity="1" stop-color="rgb(75.863647%, 36.384583%, 21.107483%)" offset="0.5"/><stop stop-opacity="1" stop-color="rgb(76.077271%, 36.534119%, 20.979309%)" offset="0.503906"/><stop stop-opacity="1" stop-color="rgb(76.290894%, 36.683655%, 20.851135%)" offset="0.507812"/><stop stop-opacity="1" stop-color="rgb(76.504517%, 36.833191%, 20.722961%)" offset="0.511719"/><stop stop-opacity="1" stop-color="rgb(76.71814%, 36.982727%, 20.596313%)" offset="0.515625"/><stop stop-opacity="1" stop-color="rgb(76.931763%, 37.132263%, 20.46814%)" offset="0.519531"/><stop stop-opacity="1" stop-color="rgb(77.145386%, 37.281799%, 20.341492%)" offset="0.523438"/><stop stop-opacity="1" stop-color="rgb(77.359009%, 37.431335%, 20.213318%)" offset="0.527344"/><stop stop-opacity="1" stop-color="rgb(77.572632%, 37.582397%, 20.08667%)" offset="0.53125"/><stop stop-opacity="1" stop-color="rgb(77.786255%, 37.731934%, 19.958496%)" offset="0.535156"/><stop stop-opacity="1" stop-color="rgb(77.999878%, 37.88147%, 19.831848%)" offset="0.539063"/><stop stop-opacity="1" stop-color="rgb(78.211975%, 38.031006%, 19.703674%)" offset="0.542969"/><stop stop-opacity="1" stop-color="rgb(78.425598%, 38.180542%, 19.577026%)" offset="0.546875"/><stop stop-opacity="1" stop-color="rgb(78.639221%, 38.330078%, 19.448853%)" offset="0.550781"/><stop stop-opacity="1" stop-color="rgb(78.852844%, 38.479614%, 19.322205%)" offset="0.554688"/><stop stop-opacity="1" stop-color="rgb(79.066467%, 38.62915%, 19.194031%)" offset="0.558594"/><stop stop-opacity="1" stop-color="rgb(79.28009%, 38.778687%, 19.067383%)" offset="0.5625"/><stop stop-opacity="1" stop-color="rgb(79.493713%, 38.928223%, 18.939209%)" offset="0.566406"/><stop stop-opacity="1" stop-color="rgb(79.707336%, 39.077759%, 18.812561%)" offset="0.570313"/><stop stop-opacity="1" stop-color="rgb(79.920959%, 39.227295%, 18.684387%)" offset="0.574219"/><stop stop-opacity="1" stop-color="rgb(80.134583%, 39.376831%, 18.557739%)" offset="0.578125"/><stop stop-opacity="1" stop-color="rgb(80.348206%, 39.526367%, 18.429565%)" offset="0.582031"/><stop stop-opacity="1" stop-color="rgb(80.561829%, 39.675903%, 18.302917%)" offset="0.585938"/><stop stop-opacity="1" stop-color="rgb(80.775452%, 39.825439%, 18.174744%)" offset="0.589844"/><stop stop-opacity="1" stop-color="rgb(80.989075%, 39.976501%, 18.048096%)" offset="0.59375"/><stop stop-opacity="1" stop-color="rgb(81.201172%, 40.126038%, 17.919922%)" offset="0.597656"/><stop stop-opacity="1" stop-color="rgb(81.414795%, 40.275574%, 17.793274%)" offset="0.601563"/><stop stop-opacity="1" stop-color="rgb(81.628418%, 40.42511%, 17.6651%)" offset="0.605469"/><stop stop-opacity="1" stop-color="rgb(81.842041%, 40.574646%, 17.538452%)" offset="0.609375"/><stop stop-opacity="1" stop-color="rgb(82.055664%, 40.724182%, 17.410278%)" offset="0.613281"/><stop stop-opacity="1" stop-color="rgb(82.269287%, 40.873718%, 17.28363%)" offset="0.617188"/><stop stop-opacity="1" stop-color="rgb(82.48291%, 41.023254%, 17.155457%)" offset="0.621094"/><stop stop-opacity="1" stop-color="rgb(82.696533%, 41.172791%, 17.028809%)" offset="0.625"/><stop stop-opacity="1" stop-color="rgb(82.910156%, 41.322327%, 16.900635%)" offset="0.628906"/><stop stop-opacity="1" stop-color="rgb(83.123779%, 41.471863%, 16.773987%)" offset="0.632813"/><stop stop-opacity="1" stop-color="rgb(83.337402%, 41.621399%, 16.645813%)" offset="0.636719"/><stop stop-opacity="1" stop-color="rgb(83.551025%, 41.770935%, 16.517639%)" offset="0.640625"/><stop stop-opacity="1" stop-color="rgb(83.763123%, 41.920471%, 16.389465%)" offset="0.644531"/><stop stop-opacity="1" stop-color="rgb(83.976746%, 42.070007%, 16.262817%)" offset="0.648437"/><stop stop-opacity="1" stop-color="rgb(84.190369%, 42.219543%, 16.134644%)" offset="0.652344"/><stop stop-opacity="1" stop-color="rgb(84.403992%, 42.370605%, 16.007996%)" offset="0.65625"/><stop stop-opacity="1" stop-color="rgb(84.617615%, 42.520142%, 15.879822%)" offset="0.660156"/><stop stop-opacity="1" stop-color="rgb(84.831238%, 42.669678%, 15.753174%)" offset="0.664062"/><stop stop-opacity="1" stop-color="rgb(85.044861%, 42.819214%, 15.625%)" offset="0.667969"/><stop stop-opacity="1" stop-color="rgb(85.258484%, 42.96875%, 15.498352%)" offset="0.671875"/><stop stop-opacity="1" stop-color="rgb(85.472107%, 43.118286%, 15.370178%)" offset="0.675781"/><stop stop-opacity="1" stop-color="rgb(85.68573%, 43.267822%, 15.24353%)" offset="0.679688"/><stop stop-opacity="1" stop-color="rgb(85.899353%, 43.417358%, 15.115356%)" offset="0.683594"/><stop stop-opacity="1" stop-color="rgb(86.112976%, 43.566895%, 14.988708%)" offset="0.6875"/><stop stop-opacity="1" stop-color="rgb(86.326599%, 43.716431%, 14.860535%)" offset="0.691406"/><stop stop-opacity="1" stop-color="rgb(86.540222%, 43.865967%, 14.733887%)" offset="0.695312"/><stop stop-opacity="1" stop-color="rgb(86.752319%, 44.015503%, 14.605713%)" offset="0.699219"/><stop stop-opacity="1" stop-color="rgb(86.965942%, 44.165039%, 14.479065%)" offset="0.703125"/><stop stop-opacity="1" stop-color="rgb(87.179565%, 44.314575%, 14.350891%)" offset="0.707031"/><stop stop-opacity="1" stop-color="rgb(87.393188%, 44.464111%, 14.224243%)" offset="0.710938"/><stop stop-opacity="1" stop-color="rgb(87.606812%, 44.613647%, 14.096069%)" offset="0.714844"/><stop stop-opacity="1" stop-color="rgb(87.820435%, 44.764709%, 13.969421%)" offset="0.71875"/><stop stop-opacity="1" stop-color="rgb(88.034058%, 44.914246%, 13.841248%)" offset="0.722656"/><stop stop-opacity="1" stop-color="rgb(88.247681%, 45.063782%, 13.7146%)" offset="0.726563"/><stop stop-opacity="1" stop-color="rgb(88.461304%, 45.213318%, 13.586426%)" offset="0.730469"/><stop stop-opacity="1" stop-color="rgb(88.674927%, 45.362854%, 13.459778%)" offset="0.734375"/><stop stop-opacity="1" stop-color="rgb(88.88855%, 45.51239%, 13.331604%)" offset="0.738281"/><stop stop-opacity="1" stop-color="rgb(89.102173%, 45.661926%, 13.204956%)" offset="0.742188"/><stop stop-opacity="1" stop-color="rgb(89.315796%, 45.811462%, 13.076782%)" offset="0.746094"/><stop stop-opacity="1" stop-color="rgb(89.529419%, 45.960999%, 12.950134%)" offset="0.75"/><stop stop-opacity="1" stop-color="rgb(89.741516%, 46.110535%, 12.82196%)" offset="0.753906"/><stop stop-opacity="1" stop-color="rgb(89.955139%, 46.260071%, 12.695312%)" offset="0.757813"/><stop stop-opacity="1" stop-color="rgb(90.168762%, 46.409607%, 12.567139%)" offset="0.761719"/><stop stop-opacity="1" stop-color="rgb(90.382385%, 46.559143%, 12.440491%)" offset="0.765625"/><stop stop-opacity="1" stop-color="rgb(90.596008%, 46.708679%, 12.312317%)" offset="0.769531"/><stop stop-opacity="1" stop-color="rgb(90.809631%, 46.859741%, 12.184143%)" offset="0.773438"/><stop stop-opacity="1" stop-color="rgb(91.023254%, 47.009277%, 12.055969%)" offset="0.777344"/><stop stop-opacity="1" stop-color="rgb(91.236877%, 47.158813%, 11.929321%)" offset="0.78125"/><stop stop-opacity="1" stop-color="rgb(91.4505%, 47.30835%, 11.801147%)" offset="0.785156"/><stop stop-opacity="1" stop-color="rgb(91.664124%, 47.457886%, 11.6745%)" offset="0.789063"/><stop stop-opacity="1" stop-color="rgb(91.877747%, 47.607422%, 11.546326%)" offset="0.792969"/><stop stop-opacity="1" stop-color="rgb(92.09137%, 47.756958%, 11.419678%)" offset="0.796875"/><stop stop-opacity="1" stop-color="rgb(92.304993%, 47.906494%, 11.291504%)" offset="0.800781"/><stop stop-opacity="1" stop-color="rgb(92.518616%, 48.05603%, 11.164856%)" offset="0.804687"/><stop stop-opacity="1" stop-color="rgb(92.730713%, 48.205566%, 11.036682%)" offset="0.808594"/><stop stop-opacity="1" stop-color="rgb(92.944336%, 48.355103%, 10.910034%)" offset="0.8125"/><stop stop-opacity="1" stop-color="rgb(93.157959%, 48.504639%, 10.78186%)" offset="0.816406"/><stop stop-opacity="1" stop-color="rgb(93.371582%, 48.654175%, 10.655212%)" offset="0.820312"/><stop stop-opacity="1" stop-color="rgb(93.585205%, 48.803711%, 10.527039%)" offset="0.824219"/><stop stop-opacity="1" stop-color="rgb(93.798828%, 48.953247%, 10.400391%)" offset="0.828125"/><stop stop-opacity="1" stop-color="rgb(94.012451%, 49.102783%, 10.272217%)" offset="0.832031"/><stop stop-opacity="1" stop-color="rgb(94.226074%, 49.253845%, 10.145569%)" offset="0.835937"/><stop stop-opacity="1" stop-color="rgb(94.439697%, 49.403381%, 10.017395%)" offset="0.839844"/><stop stop-opacity="1" stop-color="rgb(94.65332%, 49.552917%, 9.890747%)" offset="0.84375"/><stop stop-opacity="1" stop-color="rgb(94.866943%, 49.702454%, 9.762573%)" offset="0.847656"/><stop stop-opacity="1" stop-color="rgb(95.080566%, 49.85199%, 9.635925%)" offset="0.851562"/><stop stop-opacity="1" stop-color="rgb(95.292664%, 50.001526%, 9.507751%)" offset="0.855469"/><stop stop-opacity="1" stop-color="rgb(95.506287%, 50.151062%, 9.381104%)" offset="0.859375"/><stop stop-opacity="1" stop-color="rgb(95.71991%, 50.300598%, 9.25293%)" offset="0.863281"/><stop stop-opacity="1" stop-color="rgb(95.933533%, 50.450134%, 9.126282%)" offset="0.867188"/><stop stop-opacity="1" stop-color="rgb(96.147156%, 50.59967%, 8.998108%)" offset="0.871094"/><stop stop-opacity="1" stop-color="rgb(96.360779%, 50.749207%, 8.87146%)" offset="0.875"/><stop stop-opacity="1" stop-color="rgb(96.574402%, 50.898743%, 8.743286%)" offset="0.878906"/><stop stop-opacity="1" stop-color="rgb(96.788025%, 51.048279%, 8.616638%)" offset="0.882812"/><stop stop-opacity="1" stop-color="rgb(97.001648%, 51.197815%, 8.488464%)" offset="0.886719"/><stop stop-opacity="1" stop-color="rgb(97.215271%, 51.347351%, 8.361816%)" offset="0.890625"/><stop stop-opacity="1" stop-color="rgb(97.428894%, 51.496887%, 8.233643%)" offset="0.894531"/><stop stop-opacity="1" stop-color="rgb(97.642517%, 51.647949%, 8.106995%)" offset="0.898438"/><stop stop-opacity="1" stop-color="rgb(97.85614%, 51.797485%, 7.978821%)" offset="0.902344"/><stop stop-opacity="1" stop-color="rgb(98.069763%, 51.947021%, 7.850647%)" offset="0.90625"/><stop stop-opacity="1" stop-color="rgb(98.28186%, 52.096558%, 7.722473%)" offset="0.910156"/><stop stop-opacity="1" stop-color="rgb(98.495483%, 52.246094%, 7.595825%)" offset="0.914063"/><stop stop-opacity="1" stop-color="rgb(98.709106%, 52.39563%, 7.467651%)" offset="0.917969"/><stop stop-opacity="1" stop-color="rgb(98.922729%, 52.545166%, 7.341003%)" offset="0.921875"/><stop stop-opacity="1" stop-color="rgb(99.136353%, 52.694702%, 7.21283%)" offset="0.925781"/><stop stop-opacity="1" stop-color="rgb(99.349976%, 52.844238%, 7.086182%)" offset="0.929688"/><stop stop-opacity="1" stop-color="rgb(99.563599%, 52.993774%, 6.958008%)" offset="0.933594"/><stop stop-opacity="1" stop-color="rgb(99.777222%, 53.143311%, 6.83136%)" offset="0.9375"/><stop stop-opacity="1" stop-color="rgb(99.888611%, 53.22113%, 6.764221%)" offset="1"/></linearGradient></defs><g clip-path="url(#id1)"><g clip-path="url(#id2)"><path fill="#ff8811" d="M 69.882812 301.4375 L 69.882812 78.960938 L 292.488281 78.960938 L 292.488281 301.4375 Z M 69.882812 301.4375 " fill-opacity="1" fill-rule="nonzero"/></g></g><path fill="#c521e0" d="M 145.757812 95.148438 C 144.699219 95.765625 106.585938 117.492188 106.058594 155.757812 C 105.53125 194.554688 143.378906 152.679688 163.273438 152.152344 C 183.164062 151.625 166.351562 194.816406 174.273438 198.863281 C 182.195312 202.910156 212.125 184.085938 218.726562 201.417969 C 225.328125 218.746094 197.777344 249.976562 212.300781 261.675781 C 226.824219 273.375 266.871094 244.082031 267.136719 243.90625 C 263.175781 250.238281 258.421875 256.222656 252.878906 261.761719 C 213.269531 301.351562 149.101562 301.351562 109.492188 261.761719 C 69.882812 222.175781 69.882812 158.046875 109.492188 118.460938 C 120.054688 107.902344 132.464844 100.074219 145.757812 95.148438 Z M 207.8125 179.6875 C 211.859375 187.164062 226.207031 178.191406 221.894531 173.355469 C 218.988281 170.1875 207.371094 169.308594 206.667969 175.199219 C 206.492188 176.34375 206.84375 177.839844 207.8125 179.6875 Z M 225.765625 195.347656 C 230.34375 198.25 236.683594 194.113281 239.410156 190.773438 C 246.453125 182.238281 241.609375 177.753906 236.328125 177.753906 C 226.734375 177.753906 215.996094 189.1875 225.765625 195.347656 Z M 148.574219 174.9375 C 145.84375 181.621094 147.164062 189.890625 152.886719 189.714844 C 159.398438 189.539062 164.152344 181.269531 164.855469 174.671875 C 166.089844 161.566406 152.359375 165.523438 148.574219 174.9375 Z M 203.675781 145.46875 C 198.746094 153.648438 200.152344 158.398438 203.675781 160.6875 C 210.980469 165.4375 220.308594 159.628906 226.734375 151.890625 C 251.558594 122.15625 213.355469 129.632812 203.675781 145.46875 Z M 201.035156 90.75 C 201.472656 91.015625 214.148438 99.195312 199.800781 120.746094 C 185.277344 142.738281 220.484375 126.113281 234.832031 126.640625 C 249.179688 127.167969 233.25 147.316406 230.960938 156.023438 C 228.671875 164.734375 256.308594 166.226562 260.183594 175.90625 C 264.054688 185.582031 239.761719 218.570312 247.15625 227.984375 C 254.550781 237.394531 270.042969 224.726562 280.957031 208.628906 C 286.855469 176.960938 277.523438 143.003906 252.964844 118.460938 C 238.179688 103.769531 220.046875 94.53125 201.035156 90.75 Z M 201.035156 90.75 " fill-opacity="0.2" fill-rule="evenodd"/><path fill="#c521e0" d="M 240.289062 272.496094 C 200.679688 300.996094 145.050781 297.480469 109.402344 261.851562 C 88.632812 241.089844 78.773438 213.554688 79.742188 186.375 C 83.789062 195.609375 90.742188 205.460938 102.363281 205.023438 C 124.101562 204.230469 128.679688 206.078125 126.390625 225.695312 C 124.101562 245.402344 173.132812 211.179688 188.269531 214.4375 C 203.320312 217.777344 186.949219 250.679688 190.296875 260.882812 C 193.640625 271.089844 207.195312 274.957031 218.109375 272.847656 C 226.121094 271.527344 235.183594 270.914062 240.289062 272.496094 Z M 111.253906 212.5 C 109.492188 216.371094 113.453125 218.746094 116.269531 218.746094 C 121.640625 218.65625 122.871094 214.347656 120.757812 211.621094 C 118.734375 208.804688 113.453125 207.660156 111.253906 212.5 Z M 111.253906 212.5 " fill-opacity="0.2" fill-rule="evenodd"/><path fill="#47077f" d="M 273.472656 148.195312 C 289.316406 256.484375 165.914062 312.960938 97.34375 247.25 C 100.867188 252.4375 104.914062 257.277344 109.492188 261.851562 C 149.101562 301.4375 213.269531 301.4375 252.878906 261.851562 C 283.683594 231.0625 290.460938 185.492188 273.472656 148.195312 Z M 273.472656 148.195312 " fill-opacity="0.2" fill-rule="evenodd"/><path fill="#99ffff" d="M 228.054688 100.25 C 229.464844 108.519531 227.878906 117.054688 218.550781 122.507812 C 195.046875 136.316406 172.953125 120.484375 165.386719 143.445312 C 157.816406 166.402344 152.621094 178.191406 133.699219 179.6875 C 114.773438 181.183594 107.644531 182.765625 102.539062 197.546875 C 97.433594 212.324219 92.679688 200.800781 82.734375 214.699219 C 74.371094 181.269531 83.261719 144.5 109.402344 118.371094 C 141.53125 86.4375 189.855469 80.371094 228.054688 100.25 Z M 228.054688 100.25 " fill-opacity="0.251" fill-rule="evenodd"/><g clip-path="url(#id3)"><g clip-path="url(#id4)"><path fill="url(#id5)" d="M 11.699219 251.296875 L 11.699219 133.589844 L 365.632812 133.589844 L 365.632812 251.296875 Z M 11.699219 251.296875 " fill-rule="nonzero"/></g></g><path fill="#ff8811" d="M 37.929688 232.996094 C 48.757812 235.898438 51.222656 233.523438 63.457031 229.039062 C 75.691406 224.550781 82.292969 234.316406 90.65625 233.789062 C 99.105469 233.171875 101.65625 224.816406 124.015625 225.785156 C 146.371094 226.664062 151.214844 215.402344 160.542969 212.414062 C 169.875 209.507812 184.484375 218.042969 190.558594 220.945312 C 196.632812 223.847656 199.449219 221.648438 207.460938 213.644531 C 215.46875 205.636719 229.289062 201.679688 245.570312 207.484375 C 261.769531 213.378906 274.441406 210.035156 277.875 201.328125 C 281.308594 192.617188 282.628906 178.894531 303.050781 180.390625 C 323.46875 181.886719 332.273438 187.515625 336.9375 178.105469 C 341.515625 168.691406 343.449219 162.355469 349.171875 159.453125 C 349.171875 159.453125 345.5625 163.5 344.949219 169.042969 C 344.332031 174.496094 346.882812 195.257812 338.082031 198.777344 C 329.28125 202.382812 308.332031 186.902344 302.785156 189.980469 C 297.328125 193.058594 294.421875 220.328125 271.097656 220.769531 C 247.683594 221.210938 232.105469 206.871094 222.597656 216.8125 C 213.003906 226.75 206.753906 243.113281 190.558594 234.316406 C 174.363281 225.519531 168.90625 216.546875 161.863281 221.648438 C 154.910156 226.75 136.601562 246.632812 118.207031 240.386719 C 99.808594 234.140625 95.847656 247.25 86.167969 242.144531 C 76.484375 237.042969 75.78125 231.941406 67.417969 236.78125 C 58.96875 241.707031 45.324219 239.683594 37.929688 232.996094 Z M 37.929688 232.996094 " fill-opacity="0.2" fill-rule="evenodd"/><path fill="#99ffff" d="M 220.925781 96.90625 C 219.253906 103.503906 215.203125 109.136719 206.667969 111.511719 C 180.347656 118.636719 163.183594 97.4375 149.894531 117.667969 C 136.515625 137.8125 128.328125 147.753906 109.667969 144.234375 C 102.1875 142.828125 96.464844 141.859375 91.800781 142.125 C 96.375 133.589844 102.273438 125.675781 109.402344 118.460938 C 139.59375 88.375 183.957031 81.160156 220.925781 96.90625 Z M 220.925781 96.90625 " fill-opacity="0.251" fill-rule="evenodd"/></svg>