<svg xmlns="http://www.w3.org/2000/svg" width="191" height="190" viewBox="0 0 191 190">
  <defs>
    <style>
      .cls-1, .cls-2 {
        fill: none;
        stroke-miterlimit: 10;
        stroke-width: 0.25px;
      }

      .cls-1 {
        stroke: #ffeda6;
      }

      .cls-2 {
        stroke: #a0e8ff;
      }

      .cls-3 {
        fill: #0c0038;
      }

      .cls-4 {
        fill: #f0f;
      }

      .cls-5 {
        fill: #87908a;
      }

      .cls-6 {
        fill: #b328fc;
      }

      .cls-7 {
        fill: #946fae;
      }

      .cls-8 {
        fill: #e2c2fa;
      }

      .cls-9 {
        fill: #4c1481;
      }

      .cls-10 {
        fill: #3d2e40;
      }

      .cls-11 {
        fill: #946dfc;
      }

      .cls-12 {
        fill: #dbc9fd;
      }

      .cls-13 {
        fill: #654c79;
      }

      .cls-14 {
        fill: #e9dad5;
      }
    </style>
  </defs>
  <g id="图层_3" data-name="图层 3">
    <path class="cls-1" d="M47.07259,56.70782l-.01.01"/>
    <line class="cls-1" x1="92.59259" y1="128.02782" x2="92.53259" y2="128.71782"/>
    <path class="cls-1" d="M93.50259,115.44782a1.78553,1.78553,0,0,1,.15.89l-.15,1.71"/>
    <path class="cls-1" d="M111.89259,109.42782s-.52.6-1.37,1.66"/>
    <path class="cls-1" d="M145.41259,93.80782a18.01761,18.01761,0,0,1,2.02.13"/>
    <line class="cls-1" x1="135.42259" y1="147.77782" x2="135.30259" y2="142.12782"/>
    <line class="cls-1" x1="136.51259" y1="131.62782" x2="135.96259" y2="136.42782"/>
    <path class="cls-2" d="M31.05259,148.44782h-.01"/>
    <path class="cls-2" d="M135.41259,54.26782a23.30559,23.30559,0,0,1-7.01,10.26"/>
    <g>
      <path class="cls-3" d="M186.50977,92.99c-.89991-48.65015-40.59961-88.34985-89.25-89.25a90.99,90.99,0,0,0-92.71,92.71c.9004,48.65015,40.6001,88.34985,89.25,89.25025A90.9895,90.9895,0,0,0,186.50977,92.99ZM95.33008,178.71973A84.02212,84.02212,0,0,1,31.0498,148.45q-2.05443-2.4298-3.8999-5.03a8.42249,8.42249,0,0,1,7.38037.3l1-1a11.54483,11.54483,0,0,0-9.43017-.77c-1-1.48-1.9502-2.98-2.85987-4.52,2.88965-.8999,6.11963-.71,9.29-.71a15.35721,15.35721,0,0,1,7.9795,1.98,5.78927,5.78927,0,0,1,2.38037,7.42017A14.30362,14.30362,0,0,0,41.53027,152.22l2-.5c0-5.79,6.71-10,12.5-10,3.57959,0,7.54981.99,9.5,4l2.68994-1.36011a14.69011,14.69011,0,0,0-2.98-3.33984,13.92766,13.92766,0,0,0-2.42041-1.61011,9.98751,9.98751,0,0,1-5.06-6.10986,6.4359,6.4359,0,0,1-.2295-1.58008c0-11.75,6.40967-23.63013,22.42969-20.36011-.33984,1.1001-.70019,2.33008-1.02978,3.63013a37.74327,37.74327,0,0,0-1.39991,10.84985l.19971,3.21021L83.56982,125.71a65.08275,65.08275,0,0,0-1.1499,12.14014c.08008,11.82983,4.25,20,12.05029,23.6499l.21973.22L95.99023,178.02C95.72021,178.2998,95.6001,178.43018,95.33008,178.71973Zm10.0498-.59961c-1.6997.1997-3.40967.35986-5.1499.46l.27979-12.68994a38.72708,38.72708,0,0,0,4.87011,2.1997Zm20.15039-5.40039a67.95579,67.95579,0,0,1-14.83007,4.61035.8841.8841,0,0,1-1.03028-.9502l.55029-5.5498a1.04628,1.04628,0,0,1,1.27979-.91016,59.971,59.971,0,0,0,14.03027,1.79981C125.6499,171.99023,125.39014,172.46973,125.53027,172.71973Zm5.16993-59.16968c-.8501,4.80981-1.68018,10.02-2.4004,15.34009-1.46972,10.85986-3.62988,24.07983-3.18994,33.77978a36.691,36.691,0,0,0,.53028,4.99c-21.32032-.75-29.14991-9.63989-29.14991-9.63989a.958.958,0,0,1-.11035-.05,12.97882,12.97882,0,0,1-7.31006-13.51,21.075,21.075,0,0,1,.48-2.71c2.72022-10.67993,8.02-20.01,14.93018-26.28a32.44627,32.44627,0,0,1,6.02979-4.36987.01.01,0,0,1,.01025-.01026c5.06006-2.82983,10.27978-3.6997,15.16992-2.46a18.22534,18.22534,0,0,1,3.03027,1.08008A3.56285,3.56285,0,0,1,130.7002,113.55005Zm38.98,12.47a29.14947,29.14947,0,0,1-5.31006,16.75,84.64241,84.64241,0,0,1-26.83985,24.6499l-.01025-4.85986-2.98975.15991,1.76953,5.40991c-.68994.37989-1.37988.75-2.07959,1.11035-5.56005-10.7102-2.25-50.88037,4.31006-79.52026h-3c-.0205.1001-1.15039,4.8501-2.62011,12.11011a.89946.89946,0,0,1-1.1001.7l-3.27979-.81006v1l3.81983,1.93994c-.27,1.36011-.54,2.8-.81983,4.29a19.76293,19.76293,0,0,0-5.35009-2.25c-7.5503-1.91992-15.73.67017-23.04,7.29A48.98673,48.98673,0,0,0,92.6001,128a.00988.00988,0,0,0-.01026.01v.02a62.81128,62.81128,0,0,0-4.98,13.23c-.23974.95-.4497,1.8999-.6499,2.86011C85.21,133.93994,88.3999,122.45,88.4502,122.27l1.3496-4.72-8.25,4.71C82.52,108.93994,93.77,98.30005,93.89014,98.17993l-8.33008.78c1.10986-15.19995,13.93994-21.27,15.12988-21.8l.10986-.03a15.66771,15.66771,0,0,1,4.58008-.65991,15.27608,15.27608,0,0,1,11.65039,5.38989c2.57959,3.07007,5.67969,4.86011,9,4.86011A10.98335,10.98335,0,0,0,133.43994,83.53a8.23862,8.23862,0,0,1,7.96-1.8l3.23.99a102.60959,102.60959,0,0,1,.78028,11.09009,54.943,54.943,0,0,0,.4497,6.24l-2.32959.66992-1,2,3.54981-1.15991a35.83643,35.83643,0,0,0,2.75976,9.24L146.53027,112.72l-.12011,1.08008,3.0498-1.75a23.9918,23.9918,0,0,0,2.5,3.82983A37.30213,37.30213,0,0,0,154.7998,119.04L153.53027,123.72l1,1,1.5-4.54a21.75024,21.75024,0,0,0,7.5,4.40015V127.72l1,1,.28955-3.75a22.91974,22.91974,0,0,0,4.86036.72ZM108.2998,63.76a10.39007,10.39007,0,0,0-4.86962-6.33008,1.25952,1.25952,0,0,0-1.84034.90015l-.3999,2.35986a7.87918,7.87918,0,0,1,1.25.36011c-.39014,1.53979-1.73,3.93994-2.90967,4.66992C91.2998,70.83008,65.46,63.01,47.06982,56.71,43.14014,55.37988,39.5498,54.1001,36.54,53.04c5.87012-3.86011,15.6499-5.61011,28.6001-5.07007a144.23313,144.23313,0,0,1,21.96,2.69995l2.1499.47022L89.50977,48.97c.01025-.07983.97021-7.31006,6.87011-11.22,3.56006-2.35986,8.22022-3.04,13.87989-2.06006a2.91959,2.91959,0,0,1,2.21044,3.93018A48.572,48.572,0,0,0,109.53027,56.72,51.46716,51.46716,0,0,0,110.85986,68.53a73.34622,73.34622,0,0,1-8.82959,3.5c-15.49023,5.03-31.73047,4.5-46.29-2.88989A75.79,75.79,0,0,1,40.2002,58.54C42.23,59.23,44.5498,59.98,47.06006,60.77l.00976.01c12.87012,4.03,30.96045,8.86987,43.73,8.86987,4.8501,0,8.94043-.7,11.68018-2.3999a8.42049,8.42049,0,0,0,3.37012-3.8,4.6746,4.6746,0,0,1,.52978.99.81542.81542,0,0,0,.93018.52l.2998-.06006A.90719.90719,0,0,0,108.2998,63.76Zm5.23047-7.04c0-15.32007,6.58985-26,12.5-26,4.26953,0,8.88965,5.57007,11.12989,14.44995A47.34,47.34,0,0,1,138.53027,56.72c0,15.32007-6.59033,26-12.5,26-3.96045,0-8.24023-4.81006-10.61035-12.59985h-.00976A46.05214,46.05214,0,0,1,113.53027,56.72Zm56.01953,54.74-.01953.14014L169.6499,122.29a29.53022,29.53022,0,0,1-4.58008-.66016l.3003-3.90991-1.83985-1v4.51a20.60472,20.60472,0,0,1-6.73047-3.39014l2.22022-6.75976-1.93018-.52-1.6499,6.11987a19.39676,19.39676,0,0,1-1.90967-2.03979,22.68173,22.68173,0,0,1-2.34033-3.58008l2.34033-1.34009-1-2-2.10009,1.75a34.61246,34.61246,0,0,1-2.42041-8.55l3.83007-1.25-1.30957-.95-2.72021.78a54.25762,54.25762,0,0,1-.37988-5.56006A65.35252,65.35252,0,0,1,148.06006,83.76l2.96.88989C151.89014,84.87988,172.28027,90.52,169.5498,111.46Zm4.13038,14-.14991-13.62012c3.07959-24.34985-21.25-30.98974-21.42041-31.02978l-11.5-3.49a2.06914,2.06914,0,0,1-1.31982-2.75c.12012-.28.23-.58008.33984-.87012,3.68994-.11011,15.56006-.91992,20.21-7.05C162.02,63.76,162.6001,60.25,161.54,56.21c-1.75977-6.72-6.46-12.06006-13.58984-15.41992a36.63368,36.63368,0,0,0-9.07032-2.89014C135.8501,31.08008,131.22021,26.72,126.03027,26.72c-3.61035,0-6.95019,2.11987-9.67041,5.68994-8.33984-2.08984-17.0498-1.3999-22.18994,2A20.72089,20.72089,0,0,0,85.98,46.37012c-8.56982-1.65015-41.91016-7.02-54.85986,5.93994l-2.21,2.2a10.64448,10.64448,0,0,1,4.00976,2.63013,79.70068,79.70068,0,0,0,20.87012,15.5A63.86474,63.86474,0,0,0,82.7998,79.83008a60.65743,60.65743,0,0,0,8.0503-.55,29.54684,29.54684,0,0,0-9.31983,23.54l.14991,2.99c-.71-.05-1.43018-.09009-2.14991-.09009A25.966,25.966,0,0,0,54.27,137.83984a14.32586,14.32586,0,0,0-4.81982,1.48023,24.9797,24.9797,0,0,0-21.79-6.12012,8.03842,8.03842,0,0,1-8.97022-4.57007A83.99568,83.99568,0,1,1,179.53027,94.72,83.55694,83.55694,0,0,1,173.68018,125.46ZM142.31006,51.87988a50.48625,50.48625,0,0,0-.7002-5.07983,2.56676,2.56676,0,0,1,3.53028-2.87012C150.04,46.02,155.77,49.96,157.66992,57.23c.74024,2.82007.41016,5.10986-1.02,7-3.67969,4.85986-13.27978,5.74-15.85986,5.89014A50.78387,50.78387,0,0,0,142.53027,56.72C142.53027,55.07007,142.46,53.45,142.31006,51.87988Z"/>
      <path class="cls-4" d="M105.37988,168.08984v10.03028c-1.6997.1997-3.40967.35986-5.1499.46l.27979-12.68994A38.72708,38.72708,0,0,0,105.37988,168.08984Z"/>
      <path class="cls-5" d="M128.72021,109.71a18.22534,18.22534,0,0,0-3.03027-1.08008c-4.89014-1.23974-10.10986-.36987-15.16992,2.46a.01.01,0,0,0-.01025.01026c-6.68995,8.42993-33.62989,46.07983,14.60009,51.56982-.43994-9.7,1.72022-22.91992,3.18994-33.77978.72022-5.32007,1.5503-10.53028,2.4004-15.34009A3.56285,3.56285,0,0,0,128.72021,109.71Zm-14.43994,43.95,2.00977,1.75a.977.977,0,0,1,.33984.75,1.03461,1.03461,0,0,1-.23974.66016,1.00735,1.00735,0,0,1-1.41016.09985L112.54,154.80005a.99035.99035,0,0,0-1.31006,0l-2.43018,2.11987a1.00529,1.00529,0,0,1-.6499.24,1.03871,1.03871,0,0,1-.77-.33984,1.00737,1.00737,0,0,1,.1001-1.41016l2.01025-1.75a.99868.99868,0,0,0,0-1.51l-2.01025-1.75a1.032,1.032,0,0,1-.33984-.75976.99886.99886,0,0,1,1.65966-.75L111.23,151.01a.99091.99091,0,0,0,1.31006,0l2.43994-2.11987a1.03237,1.03237,0,0,1,.66016-.24024.978.978,0,0,1,.75.34009.99816.99816,0,0,1-.1001,1.40991l-2.00977,1.75A.998.998,0,0,0,114.28027,153.65991Z"/>
      <path class="cls-4" d="M165.06982,121.62988l.3003-3.90991-1.83985-1v4.51a20.60472,20.60472,0,0,1-6.73047-3.39014l2.22022-6.75976-1.93018-.52-1.6499,6.11987a19.39676,19.39676,0,0,1-1.90967-2.03979,22.68173,22.68173,0,0,1-2.34033-3.58008l2.34033-1.34009-1-2-2.10009,1.75a34.61246,34.61246,0,0,1-2.42041-8.55l3.83007-1.25-1.30957-.95-2.72021.78a54.25762,54.25762,0,0,1-.37988-5.56006C153.29,94.58984,169.64014,98.47,165.06982,121.62988Z"/>
      <path class="cls-6" d="M169.68018,125.68994V126.02a29.14947,29.14947,0,0,1-5.31006,16.75,84.64241,84.64241,0,0,1-26.83985,24.6499l-.01025-4.85986L135.53027,152.72l-.11035-4.93994.11035-.06006,1-6-1.23047.40991.66016-5.7.57031.29-.0205-5.09009.0205-12.90991v4l1,1,1-3-2-2,8.09961-36a102.60959,102.60959,0,0,1,.78028,11.09009,54.943,54.943,0,0,0,.4497,6.24l-2.32959.66992-1,2,3.54981-1.15991a35.83643,35.83643,0,0,0,2.75976,9.24L146.53027,112.72l-.12011,1.08008,3.0498-1.75a23.9918,23.9918,0,0,0,2.5,3.82983A37.30213,37.30213,0,0,0,154.7998,119.04L153.53027,123.72l1,1,1.5-4.54a21.75024,21.75024,0,0,0,7.5,4.40015V127.72l1,1,.28955-3.75A22.91974,22.91974,0,0,0,169.68018,125.68994Z"/>
      <path class="cls-6" d="M133.43994,83.53A10.98335,10.98335,0,0,1,126.03027,86.72c-3.32031,0-6.42041-1.79-9-4.86011A15.27608,15.27608,0,0,0,105.37988,76.47L95.91016,87.72a1.82368,1.82368,0,0,0,1.38964,3,1.82052,1.82052,0,0,1,1.64014,2.63013l-8.94971,18.27978a1.83046,1.83046,0,0,0,1.25,2.59009s.44971.09009.96973.2a1.81524,1.81524,0,0,1,1.29,1.03l.03027-.73,2-3,1,1L93.5,118.05005,92.6001,128a48.98673,48.98673,0,0,1,10.54-14.01c7.31006-6.61987,15.48974-9.21,23.04-7.29a19.76293,19.76293,0,0,1,5.35009,2.25c.27979-1.49.54981-2.92993.81983-4.29L128.53027,102.72v-1l3.27979.81006a.89946.89946,0,0,0,1.1001-.7c1.46972-7.26,2.59961-12.01,2.62011-12.11011C135.53027,89.72,140.3501,84.33008,133.43994,83.53Zm-33.19971,25.8999-.71-1.71,2.28955-2.71,2.71045.71Zm12.29-5.71L108.75,104.80005,107.53027,102.72l6-1Zm11.34961-1h-4.34961v-2l5,1Z"/>
      <path class="cls-4" d="M156.6499,64.23c-3.67969,4.85986-13.27978,5.74-15.85986,5.89014A50.78387,50.78387,0,0,0,142.53027,56.72c0-1.6499-.07031-3.27-.22021-4.84009C142.31006,51.87988,151.77,50.73,156.6499,64.23Z"/>
      <path class="cls-4" d="M109.53027,56.72A51.46716,51.46716,0,0,0,110.85986,68.53a73.34622,73.34622,0,0,1-8.82959,3.5c-29.12011,8.2-54.31006-10.76-54.96045-11.25,12.87012,4.03,30.96045,8.86987,43.73,8.86987,4.8501,0,8.94043-.7,11.68018-2.3999a8.42049,8.42049,0,0,0,3.37012-3.8,4.6746,4.6746,0,0,1,.52978.99.81542.81542,0,0,0,.93018.52l.2998-.06006A.90719.90719,0,0,0,108.2998,63.76a10.39007,10.39007,0,0,0-4.86962-6.33008,1.25952,1.25952,0,0,0-1.84034.90015l-.3999,2.35986a7.87918,7.87918,0,0,1,1.25.36011c-.39014,1.53979-1.73,3.93994-2.90967,4.66992C91.2998,70.83008,65.46,63.01,47.06982,56.71c.40039-.3999,9.67041-9.15991,41.09034-1.83008A3.6395,3.6395,0,0,0,92.43994,52.53c1.77-5.12012,6.81983-14.44019,20.03027-12.90991A48.572,48.572,0,0,0,109.53027,56.72Z"/>
      <path class="cls-7" d="M125.53027,172.71973a67.95579,67.95579,0,0,1-14.83007,4.61035.8841.8841,0,0,1-1.03028-.9502l.55029-5.5498a1.04628,1.04628,0,0,1,1.27979-.91016,59.971,59.971,0,0,0,14.03027,1.79981C125.6499,171.99023,125.39014,172.46973,125.53027,172.71973Z"/>
      <path class="cls-7" d="M41.53027,152.22l-.91015,5.99a83.25443,83.25443,0,0,1-9.57032-9.76C31.37012,148.37988,38.6001,146.83984,41.53027,152.22Z"/>
      <path class="cls-7" d="M94.68994,161.72l-.21973-.22C86.66992,157.8501,82.5,149.67993,82.41992,137.8501A65.08275,65.08275,0,0,1,83.56982,125.71L77.73,129.05005l-.19971-3.21021A37.74327,37.74327,0,0,1,78.93018,114.99c-16.6001,3.26-13.68995,26.03-13.68995,26.03a14.69011,14.69011,0,0,1,2.98,3.33984L65.53027,145.72l2.25,2.73-2.25,1.63013L68,152.8999l-2.46973,1.49024s-16-.66016-14,11.83984a83.26141,83.26141,0,0,0,43.79981,12.48975c.27-.28955.39013-.41993.66015-.69971ZM70.72021,136.02l-1.84033.79C65.93994,130,71.31006,124.96,71.53027,124.72l1.18994.67017H72.73C72.54,125.58984,68.29,130.3999,70.72021,136.02Z"/>
      <path class="cls-8" d="M137.16016,45.16992a32.62338,32.62338,0,0,1-1.75,9.1001,9.13508,9.13508,0,0,0-8.73-7.55,9.003,9.003,0,0,0-8.77,6.40991l5.93994,1.79a.9809.9809,0,0,1,.08008,1.8501l-5.74024,2.31982A8.98855,8.98855,0,0,0,126.53027,64.72,9.573,9.573,0,0,0,128.3999,64.53a25.16555,25.16555,0,0,1-12.98,5.59009h-.00976A46.05214,46.05214,0,0,1,113.53027,56.72c0-15.32007,6.58985-26,12.5-26C130.2998,30.72,134.91992,36.29,137.16016,45.16992Z"/>
      <path class="cls-8" d="M156.6499,64.23c-4.87988-13.5-14.33984-12.3501-14.33984-12.3501a50.48625,50.48625,0,0,0-.7002-5.07983,2.56676,2.56676,0,0,1,3.53028-2.87012C150.04,46.02,155.77,49.96,157.66992,57.23,158.41016,60.05005,158.08008,62.33984,156.6499,64.23Z"/>
      <path class="cls-8" d="M169.53027,111.6001,169.6499,122.29a29.53022,29.53022,0,0,1-4.58008-.66016c4.57032-23.15991-11.77978-27.04-17.63964-27.68994A65.35252,65.35252,0,0,1,148.06006,83.76l2.96.88989c.87012.23,21.26025,5.87012,18.52978,26.81006Z"/>
      <path class="cls-8" d="M137.52,162.56006l-2.98975.15991,1.76953,5.40991c-.68994.37989-1.37988.75-2.07959,1.11035-5.56005-10.7102-2.25-50.88037,4.31006-79.52026h-3s4.81983-5.38989-2.09033-6.18994a8.23862,8.23862,0,0,1,7.96-1.8l3.23.99-8.09961,36-.0205,12.90991-.9795-2.90991-1,7,1.42969.71-.66016,5.7-1.76953.59009-.13037,6.27,2.02-1.21.11035,4.93994-2,2,1,4,2,1-1-7Z"/>
      <path class="cls-8" d="M125.64014,167.65991c-21.32032-.75-29.14991-9.63989-29.14991-9.63989a.958.958,0,0,1-.11035-.05,12.97882,12.97882,0,0,1-7.31006-13.51,21.075,21.075,0,0,1,.48-2.71c2.72022-10.67993,8.02-20.01,14.93018-26.28a32.44627,32.44627,0,0,1,6.02979-4.36987c-6.68995,8.42993-33.62989,46.07983,14.60009,51.56982A36.691,36.691,0,0,0,125.64014,167.65991Z"/>
      <path class="cls-8" d="M99.12988,92.54a1.81684,1.81684,0,0,1-.18994.81006l-8.94971,18.27978a1.83046,1.83046,0,0,0,1.25,2.59009s.44971.09009.96973.2a1.81524,1.81524,0,0,1,1.29,1.03l-.12012,2.8.12012-.2L92.6001,128a.00988.00988,0,0,0-.01026.01v.02a62.81128,62.81128,0,0,0-4.98,13.23c-.23974.95-.4497,1.8999-.6499,2.86011C85.21,133.93994,88.3999,122.45,88.4502,122.27l1.3496-4.72-8.25,4.71C82.52,108.93994,93.77,98.30005,93.89014,98.17993l-8.33008.78c1.10986-15.19995,13.93994-21.27,15.12988-21.8l.10986-.03a15.66771,15.66771,0,0,1,4.58008-.65991L95.91016,87.72a1.82368,1.82368,0,0,0,1.38964,3A1.8283,1.8283,0,0,1,99.12988,92.54Z"/>
      <path class="cls-8" d="M102.03027,72.03c-15.49023,5.03-31.73047,4.5-46.29-2.88989A75.79,75.79,0,0,1,40.2002,58.54C42.23,59.23,44.5498,59.98,47.06006,60.77l.00976.01C47.72021,61.27,72.91016,80.23,102.03027,72.03Z"/>
      <path class="cls-8" d="M112.47021,39.62012C99.25977,38.08984,94.21,47.40991,92.43994,52.53a3.6395,3.6395,0,0,1-4.27978,2.34985c-31.41993-7.32983-40.69,1.43018-41.09034,1.83008C43.14014,55.37988,39.5498,54.1001,36.54,53.04c5.87012-3.86011,15.6499-5.61011,28.6001-5.07007a144.23313,144.23313,0,0,1,21.96,2.69995l2.1499.47022L89.50977,48.97c.01025-.07983.97021-7.31006,6.87011-11.22,3.56006-2.35986,8.22022-3.04,13.87989-2.06006A2.91959,2.91959,0,0,1,112.47021,39.62012Z"/>
      <path class="cls-9" d="M95.53027,10.72A83.97953,83.97953,0,0,0,18.68994,128.62988,8.03842,8.03842,0,0,0,27.66016,133.2a24.9797,24.9797,0,0,1,21.79,6.12012A14.32586,14.32586,0,0,1,54.27,137.83984,25.966,25.966,0,0,1,79.53027,105.72c.71973,0,1.43994.04,2.14991.09009l-.14991-2.99A29.54684,29.54684,0,0,1,90.8501,79.28a60.65743,60.65743,0,0,1-8.0503.55A63.86474,63.86474,0,0,1,53.79,72.64014a79.70068,79.70068,0,0,1-20.87012-15.5A10.64448,10.64448,0,0,0,28.91016,54.51l2.21-2.2c12.9497-12.96,46.29-7.59009,54.85986-5.93994a20.72089,20.72089,0,0,1,8.18994-11.96021c5.14014-3.3999,13.8501-4.08984,22.18994-2,2.72022-3.57007,6.06006-5.68994,9.67041-5.68994,5.18994,0,9.81983,4.36011,12.84961,11.17993A36.63368,36.63368,0,0,1,147.9502,40.79C155.08008,44.1499,159.78027,49.49,161.54,56.21c1.06006,4.04.48,7.55-1.7002,10.43994-4.6499,6.13013-16.52,6.93994-20.21,7.05-.10986.29-.21972.59009-.33984.87012a2.06914,2.06914,0,0,0,1.31982,2.75l11.5,3.49c.17041.04,24.5,6.67993,21.42041,31.02978l.14991,13.62012A83.95021,83.95021,0,0,0,95.53027,10.72Zm-69,116a1,1,0,1,1,1-1A1.00272,1.00272,0,0,1,26.53027,126.72Zm47-30a1,1,0,1,1-1,1A1.003,1.003,0,0,1,73.53027,96.72Zm-15-10a1,1,0,1,1-1,1A1.003,1.003,0,0,1,58.53027,86.72Zm-14.5,15a1.5,1.5,0,1,1-1.5,1.5A1.49836,1.49836,0,0,1,44.03027,101.72Zm-1,21a.49525.49525,0,0,1,.5.5.50158.50158,0,0,1-.5.5.50773.50773,0,0,1-.5-.5A.50111.50111,0,0,1,43.03027,122.72Zm22-93a.50773.50773,0,0,1-.5-.5.50111.50111,0,0,1,.5-.5.49525.49525,0,0,1,.5.5A.50158.50158,0,0,1,65.03027,29.72Zm33-16a.50773.50773,0,0,1-.5-.5.50111.50111,0,0,1,.5-.5.49525.49525,0,0,1,.5.5A.50158.50158,0,0,1,98.03027,13.72Zm60.5,67a1,1,0,1,1,1-1A1.00272,1.00272,0,0,1,158.53027,80.72Zm10.5-6a.50773.50773,0,0,1-.5-.5.50111.50111,0,0,1,.5-.5.49525.49525,0,0,1,.5.5A.50158.50158,0,0,1,169.03027,74.72Z"/>
      <circle class="cls-4" cx="26.53027" cy="125.71997" r="1"/>
      <circle class="cls-10" cx="43.03027" cy="123.21997" r="0.5"/>
      <circle class="cls-10" cx="44.03027" cy="103.21997" r="1.5"/>
      <circle class="cls-10" cx="58.53027" cy="87.71997" r="1"/>
      <circle class="cls-10" cx="65.03027" cy="29.21997" r="0.5"/>
      <circle class="cls-10" cx="73.53027" cy="97.71997" r="1"/>
      <circle class="cls-10" cx="98.03027" cy="13.21997" r="0.5"/>
      <circle class="cls-10" cx="158.53027" cy="79.71997" r="1"/>
      <circle class="cls-10" cx="169.03027" cy="74.21997" r="0.5"/>
      <path class="cls-11" d="M138.53027,56.72c0,15.32007-6.59033,26-12.5,26-3.96045,0-8.24023-4.81006-10.61035-12.59985a25.16555,25.16555,0,0,0,12.98-5.59009A9.01844,9.01844,0,0,0,135.53027,55.46a7.92169,7.92169,0,0,0-.12011-1.18994,32.62338,32.62338,0,0,0,1.75-9.1001A47.34,47.34,0,0,1,138.53027,56.72Z"/>
      <path class="cls-12" d="M57.53027,131.72a6.4359,6.4359,0,0,0,.2295,1.58008,9.98751,9.98751,0,0,0,5.06,6.10986A13.92766,13.92766,0,0,1,65.24023,141.02s-2.91015-22.77,13.68995-26.03c.32959-1.3.68994-2.53,1.02978-3.63013C63.93994,108.08984,57.53027,119.97,57.53027,131.72Zm16-16c-4.48047.61011-7.20019,3.86011-8.64013,8.49a35.45986,35.45986,0,0,0-1.35987,7.51L62.04,131.49c-.00977-.15015-1.14014-15.44995,11.50976-17.15991Z"/>
      <path class="cls-12" d="M42.89014,146.12012A14.30362,14.30362,0,0,0,41.53027,152.22c-2.93017-5.38013-10.16015-3.84009-10.48047-3.77q-2.05443-2.4298-3.8999-5.03a8.42249,8.42249,0,0,1,7.38037.3l1-1a11.54483,11.54483,0,0,0-9.43017-.77c-1-1.48-1.9502-2.98-2.85987-4.52,2.88965-.8999,6.11963-.71,9.29-.71a15.35721,15.35721,0,0,1,7.9795,1.98A5.78927,5.78927,0,0,1,42.89014,146.12012Z"/>
      <path class="cls-12" d="M65.53027,150.08008l2.25-1.63013-2.25-2.73c-1.95019-3.01-5.92041-4-9.5-4-5.79,0-12.5,4.21-12.5,10l-2,.5-.91015,5.99a83.19808,83.19808,0,0,0,10.91015,8.02c-2-12.5,14-11.83984,14-11.83984L68,152.8999Zm-8,1.63989c-.0205-.25-2-2-5.21045-1.63989L51.53027,148.72c5-1,7,1,8,2Zm5.73975.68994c-1.08984-5.57983-9.54981-5.43994-9.64014-5.43994l-.0498-2C54,144.98,63.81982,144.78,65.24023,152.03Z"/>
      <path class="cls-3" d="M135.53027,55.46A9.01844,9.01844,0,0,1,128.3999,64.53a9.573,9.573,0,0,1-1.86963.18994,8.98855,8.98855,0,0,1-8.34033-5.63013L123.93018,56.77a.9809.9809,0,0,0-.08008-1.8501l-5.93994-1.79a9.003,9.003,0,0,1,8.77-6.40991,9.13508,9.13508,0,0,1,8.73,7.55A7.92169,7.92169,0,0,1,135.53027,55.46Z"/>
      <polygon class="cls-13" points="96.53 112.72 93.5 118.05 93.38 118.25 93.5 115.45 93.53 114.72 95.53 111.72 96.53 112.72"/>
      <polygon class="cls-13" points="104.53 105.72 100.24 109.43 99.53 107.72 101.82 105.01 104.53 105.72"/>
      <polygon class="cls-13" points="113.53 101.72 112.53 103.72 108.75 104.8 107.53 102.72 113.53 101.72"/>
      <polygon class="cls-13" points="124.53 101.72 123.88 102.72 119.53 102.72 119.53 100.72 124.53 101.72"/>
      <polygon class="cls-13" points="138.53 120.72 137.53 123.72 136.53 122.72 136.53 118.72 138.53 120.72"/>
      <polygon class="cls-13" points="136.53 136.72 135.96 136.43 134.53 135.72 135.53 128.72 136.51 131.63 136.53 136.72"/>
      <polygon class="cls-13" points="136.53 141.72 135.53 147.72 135.42 147.78 133.4 148.99 133.53 142.72 135.3 142.13 136.53 141.72"/>
      <polygon class="cls-13" points="136.53 159.72 134.53 158.72 133.53 154.72 135.53 152.72 136.53 159.72"/>
      <path class="cls-13" d="M116.29,155.40991a.977.977,0,0,1,.33984.75,1.03461,1.03461,0,0,1-.23974.66016,1.00735,1.00735,0,0,1-1.41016.09985L112.54,154.80005a.99035.99035,0,0,0-1.31006,0l-2.43018,2.11987a1.00529,1.00529,0,0,1-.6499.24,1.03871,1.03871,0,0,1-.77-.33984,1.00737,1.00737,0,0,1,.1001-1.41016l2.01025-1.75a.99868.99868,0,0,0,0-1.51l-2.01025-1.75a1.032,1.032,0,0,1-.33984-.75976.99886.99886,0,0,1,1.65966-.75L111.23,151.01a.99091.99091,0,0,0,1.31006,0l2.43994-2.11987a1.03237,1.03237,0,0,1,.66016-.24024.978.978,0,0,1,.75.34009.99816.99816,0,0,1-.1001,1.40991l-2.00977,1.75a.998.998,0,0,0,0,1.51Z"/>
      <path class="cls-13" d="M73.5498,114.33008,73.53027,115.72c-4.48047.61011-7.20019,3.86011-8.64013,8.49a35.45986,35.45986,0,0,0-1.35987,7.51L62.04,131.49C62.03027,131.33984,60.8999,116.04,73.5498,114.33008Z"/>
      <path class="cls-13" d="M70.72021,136.02l-1.84033.79C65.93994,130,71.31006,124.96,71.53027,124.72l1.18994.67017H72.73C72.54,125.58984,68.29,130.3999,70.72021,136.02Z"/>
      <path class="cls-13" d="M65.24023,152.03l-1.97021.37988c-1.08984-5.57983-9.54981-5.43994-9.64014-5.43994l-.0498-2C54,144.98,63.81982,144.78,65.24023,152.03Z"/>
      <path class="cls-13" d="M59.53027,150.72l-2,1c-.0205-.25-2-2-5.21045-1.63989L51.53027,148.72C56.53027,147.72,58.53027,149.72,59.53027,150.72Z"/>
    </g>
    <circle class="cls-4" cx="58.53027" cy="87.71997" r="1"/>
    <circle class="cls-14" cx="44.03027" cy="103.21997" r="1.5"/>
    <circle class="cls-14" cx="73.53027" cy="97.71997" r="1"/>
    <circle class="cls-4" cx="26.53027" cy="125.71997" r="1"/>
    <circle class="cls-14" cx="18.03259" cy="81.21782" r="0.5"/>
    <circle class="cls-14" cx="65.03027" cy="29.21997" r="0.5"/>
    <circle class="cls-14" cx="169.03027" cy="74.21997" r="0.5"/>
    <circle class="cls-4" cx="158.53027" cy="79.71997" r="1"/>
    <circle class="cls-14" cx="43.03027" cy="123.21997" r="0.5"/>
    <circle class="cls-14" cx="98.03027" cy="13.21997" r="0.5"/>
    <polygon class="cls-4" points="75.681 96.977 75.681 98.993 73.935 100 72.19 98.993 72.19 96.977 73.935 95.97 75.681 96.977"/>
    <polygon class="cls-12" points="46.326 100.977 46.326 104.993 42.849 107 39.371 104.993 39.371 100.977 42.849 98.97 46.326 100.977"/>
    <path class="cls-12" d="M47.78013,102.82606c.51159-.0134,1.02293-.00243,1.53767.031.25818.01448.51506.04268.77542.07806a5.27288,5.27288,0,0,1,.80013.16452,1.4164,1.4164,0,0,1,.44632.21691.51713.51713,0,0,1,.202.30376.43568.43568,0,0,1-.01874.21222.78725.78725,0,0,1-.04435.0853.37892.37892,0,0,1-.05324.07371.99514.99514,0,0,1-.22562.18828c-.0353.02123-.07213.04362-.10776.06308l-.10316.05117a3.876,3.876,0,0,1-.39808.15777,11.15194,11.15194,0,0,1-1.53929.363c-.25486.044-.51.08639-.76483.123-.25535.03594-.5111.06383-.76661.09265-.51118.05543-1.0222.10088-1.53355.13962-.5115.03774-1.02374.05907-1.53556.07955q-.7681.02342-1.53605.0268a39.64279,39.64279,0,0,1-6.135-.42377,13.99732,13.99732,0,0,1-1.53088-.32226,4.49043,4.49043,0,0,1-.78543-.29382c-.03272-.01508-.07068-.03967-.10518-.05966a.88981.88981,0,0,1-.10865-.07387l-.05412-.04225c-.01963-.01868-.03869-.03786-.057-.05733a.46456.46456,0,0,1-.05291-.06308.82993.82993,0,0,1-.0471-.08139.41279.41279,0,0,1-.03813-.19592.60577.60577,0,0,1,.02319-.1c.00533-.01638.01131-.03249.01785-.04822l.02415-.03746a.52934.52934,0,0,1,.11245-.12724.73975.73975,0,0,1,.11843-.08335c.03772-.02055.07617-.04129.114-.05979l.10776-.043c.07246-.0296.13919-.04536.20866-.0679l.20155-.04981.198-.03945c.26222-.04626.51958-.0794.77816-.10013.51547-.04291,1.02673-.05988,1.53848-.05174l.01082.06311c-.49914.05357-.99651.11811-1.48669.20388-.24444.04434-.4876.093-.72436.1543a2.40008,2.40008,0,0,0-.6536.2498c-.08587.05838-.14759.13184-.10534.2a.53953.53953,0,0,0,.24.17575,3.84063,3.84063,0,0,0,.68656.21155c.48024.10745.97567.17917,1.47223.24a52.03568,52.03568,0,0,0,6.02973.28654c1.00823-.00046,2.01662-.02226,3.02259-.07122,1.00564-.04962,2.01047-.12367,3.0023-.25347a11.47733,11.47733,0,0,0,1.45842-.27376,3.14613,3.14613,0,0,0,.339-.11264.81457.81457,0,0,0,.27409-.16219c.06931-.06572.05154-.13959-.02553-.20354a1.06645,1.06645,0,0,0-.29033-.155,7.75415,7.75415,0,0,0-1.431-.33383c-.493-.07738-.99151-.13616-1.49162-.18507Z"/>
  </g>
</svg>
