<svg xmlns="http://www.w3.org/2000/svg" xmlns:xlink="http://www.w3.org/1999/xlink" width="500" zoomAndPan="magnify" viewBox="0 0 375 374.999991" height="500" preserveAspectRatio="xMidYMid meet" version="1.0"><defs><clipPath id="id1"><path d="M 68 68 L 307 68 L 307 307 L 68 307 Z M 68 68 " clip-rule="nonzero"/></clipPath><clipPath id="id2"><path d="M 103.640625 271.359375 C 149.925781 317.644531 225.074219 317.644531 271.359375 271.359375 C 317.644531 225.074219 317.644531 149.925781 271.359375 103.640625 C 225.074219 57.355469 149.925781 57.355469 103.640625 103.640625 C 57.355469 149.925781 57.355469 225.074219 103.640625 271.359375 Z M 103.640625 271.359375 " clip-rule="evenodd"/></clipPath><linearGradient x1="2467.917251" gradientTransform="matrix(0.0242098, 0, 0, -0.0242098, -18.584542, -13.14227)" y1="-3816.104471" x2="14556.727227" gradientUnits="userSpaceOnUse" y2="-12759.553177" id="id3"><stop stop-opacity="1" stop-color="rgb(98.997498%, 76.99585%, 0%)" offset="0"/><stop stop-opacity="1" stop-color="rgb(98.937988%, 76.815796%, 0%)" offset="0.0078125"/><stop stop-opacity="1" stop-color="rgb(98.817444%, 76.455688%, 0%)" offset="0.015625"/><stop stop-opacity="1" stop-color="rgb(98.698425%, 76.097107%, 0%)" offset="0.0234375"/><stop stop-opacity="1" stop-color="rgb(98.577881%, 75.737%, 0%)" offset="0.03125"/><stop stop-opacity="1" stop-color="rgb(98.458862%, 75.376892%, 0%)" offset="0.0390625"/><stop stop-opacity="1" stop-color="rgb(98.338318%, 75.018311%, 0%)" offset="0.046875"/><stop stop-opacity="1" stop-color="rgb(98.217773%, 74.658203%, 0%)" offset="0.0546875"/><stop stop-opacity="1" stop-color="rgb(98.098755%, 74.298096%, 0%)" offset="0.0625"/><stop stop-opacity="1" stop-color="rgb(97.97821%, 73.939514%, 0%)" offset="0.0703125"/><stop stop-opacity="1" stop-color="rgb(97.859192%, 73.579407%, 0%)" offset="0.078125"/><stop stop-opacity="1" stop-color="rgb(97.738647%, 73.219299%, 0%)" offset="0.0859375"/><stop stop-opacity="1" stop-color="rgb(97.619629%, 72.860718%, 0%)" offset="0.09375"/><stop stop-opacity="1" stop-color="rgb(97.499084%, 72.50061%, 0%)" offset="0.101563"/><stop stop-opacity="1" stop-color="rgb(97.380066%, 72.140503%, 0%)" offset="0.109375"/><stop stop-opacity="1" stop-color="rgb(97.259521%, 71.781921%, 0%)" offset="0.117188"/><stop stop-opacity="1" stop-color="rgb(97.138977%, 71.421814%, 0%)" offset="0.125"/><stop stop-opacity="1" stop-color="rgb(97.019958%, 71.061707%, 0%)" offset="0.132812"/><stop stop-opacity="1" stop-color="rgb(96.899414%, 70.703125%, 0%)" offset="0.140625"/><stop stop-opacity="1" stop-color="rgb(96.780396%, 70.343018%, 0%)" offset="0.148438"/><stop stop-opacity="1" stop-color="rgb(96.659851%, 69.98291%, 0%)" offset="0.15625"/><stop stop-opacity="1" stop-color="rgb(96.540833%, 69.622803%, 0%)" offset="0.164062"/><stop stop-opacity="1" stop-color="rgb(96.420288%, 69.264221%, 0%)" offset="0.171875"/><stop stop-opacity="1" stop-color="rgb(96.30127%, 68.904114%, 0%)" offset="0.179687"/><stop stop-opacity="1" stop-color="rgb(96.180725%, 68.544006%, 0%)" offset="0.1875"/><stop stop-opacity="1" stop-color="rgb(96.060181%, 68.185425%, 0%)" offset="0.195313"/><stop stop-opacity="1" stop-color="rgb(95.941162%, 67.825317%, 0%)" offset="0.203125"/><stop stop-opacity="1" stop-color="rgb(95.820618%, 67.46521%, 0%)" offset="0.210938"/><stop stop-opacity="1" stop-color="rgb(95.701599%, 67.106628%, 0%)" offset="0.21875"/><stop stop-opacity="1" stop-color="rgb(95.581055%, 66.746521%, 0%)" offset="0.226562"/><stop stop-opacity="1" stop-color="rgb(95.462036%, 66.386414%, 0%)" offset="0.234375"/><stop stop-opacity="1" stop-color="rgb(95.341492%, 66.027832%, 0%)" offset="0.242188"/><stop stop-opacity="1" stop-color="rgb(95.222473%, 65.667725%, 0%)" offset="0.25"/><stop stop-opacity="1" stop-color="rgb(95.101929%, 65.307617%, 0%)" offset="0.257812"/><stop stop-opacity="1" stop-color="rgb(94.981384%, 64.949036%, 0%)" offset="0.265625"/><stop stop-opacity="1" stop-color="rgb(94.862366%, 64.588928%, 0%)" offset="0.273438"/><stop stop-opacity="1" stop-color="rgb(94.741821%, 64.228821%, 0%)" offset="0.28125"/><stop stop-opacity="1" stop-color="rgb(94.622803%, 63.870239%, 0%)" offset="0.289062"/><stop stop-opacity="1" stop-color="rgb(94.502258%, 63.510132%, 0%)" offset="0.296875"/><stop stop-opacity="1" stop-color="rgb(94.38324%, 63.150024%, 0%)" offset="0.304687"/><stop stop-opacity="1" stop-color="rgb(94.262695%, 62.791443%, 0%)" offset="0.3125"/><stop stop-opacity="1" stop-color="rgb(94.142151%, 62.431335%, 0%)" offset="0.320312"/><stop stop-opacity="1" stop-color="rgb(94.023132%, 62.071228%, 0%)" offset="0.328125"/><stop stop-opacity="1" stop-color="rgb(93.902588%, 61.712646%, 0%)" offset="0.335937"/><stop stop-opacity="1" stop-color="rgb(93.783569%, 61.352539%, 0%)" offset="0.34375"/><stop stop-opacity="1" stop-color="rgb(93.663025%, 60.992432%, 0%)" offset="0.351562"/><stop stop-opacity="1" stop-color="rgb(93.544006%, 60.63385%, 0%)" offset="0.359375"/><stop stop-opacity="1" stop-color="rgb(93.423462%, 60.273743%, 0%)" offset="0.367187"/><stop stop-opacity="1" stop-color="rgb(93.304443%, 59.913635%, 0%)" offset="0.375"/><stop stop-opacity="1" stop-color="rgb(93.183899%, 59.555054%, 0%)" offset="0.382813"/><stop stop-opacity="1" stop-color="rgb(93.063354%, 59.194946%, 0%)" offset="0.390625"/><stop stop-opacity="1" stop-color="rgb(92.944336%, 58.834839%, 0%)" offset="0.398438"/><stop stop-opacity="1" stop-color="rgb(92.823792%, 58.476257%, 0%)" offset="0.40625"/><stop stop-opacity="1" stop-color="rgb(92.704773%, 58.11615%, 0%)" offset="0.414063"/><stop stop-opacity="1" stop-color="rgb(92.584229%, 57.756042%, 0%)" offset="0.421875"/><stop stop-opacity="1" stop-color="rgb(92.46521%, 57.395935%, 0%)" offset="0.425225"/><stop stop-opacity="1" stop-color="rgb(92.405701%, 57.217407%, 0%)" offset="0.429688"/><stop stop-opacity="1" stop-color="rgb(92.344666%, 57.037354%, 0%)" offset="0.4375"/><stop stop-opacity="1" stop-color="rgb(92.225647%, 56.677246%, 0%)" offset="0.445313"/><stop stop-opacity="1" stop-color="rgb(92.105103%, 56.317139%, 0%)" offset="0.453125"/><stop stop-opacity="1" stop-color="rgb(91.984558%, 55.958557%, 0%)" offset="0.460938"/><stop stop-opacity="1" stop-color="rgb(91.86554%, 55.59845%, 0%)" offset="0.46875"/><stop stop-opacity="1" stop-color="rgb(91.744995%, 55.238342%, 0%)" offset="0.476562"/><stop stop-opacity="1" stop-color="rgb(91.625977%, 54.879761%, 0%)" offset="0.484375"/><stop stop-opacity="1" stop-color="rgb(91.505432%, 54.519653%, 0%)" offset="0.492188"/><stop stop-opacity="1" stop-color="rgb(91.386414%, 54.159546%, 0%)" offset="0.5"/><stop stop-opacity="1" stop-color="rgb(91.265869%, 53.800964%, 0%)" offset="0.507812"/><stop stop-opacity="1" stop-color="rgb(91.146851%, 53.440857%, 0%)" offset="0.515625"/><stop stop-opacity="1" stop-color="rgb(91.026306%, 53.08075%, 0%)" offset="0.523438"/><stop stop-opacity="1" stop-color="rgb(90.905762%, 52.722168%, 0%)" offset="0.53125"/><stop stop-opacity="1" stop-color="rgb(90.786743%, 52.362061%, 0%)" offset="0.539062"/><stop stop-opacity="1" stop-color="rgb(90.666199%, 52.001953%, 0%)" offset="0.546875"/><stop stop-opacity="1" stop-color="rgb(90.54718%, 51.643372%, 0%)" offset="0.554688"/><stop stop-opacity="1" stop-color="rgb(90.426636%, 51.283264%, 0%)" offset="0.5625"/><stop stop-opacity="1" stop-color="rgb(90.307617%, 50.923157%, 0%)" offset="0.570312"/><stop stop-opacity="1" stop-color="rgb(90.187073%, 50.564575%, 0%)" offset="0.574775"/><stop stop-opacity="1" stop-color="rgb(90.127563%, 50.384521%, 0%)" offset="0.578125"/><stop stop-opacity="1" stop-color="rgb(90.066528%, 50.204468%, 0%)" offset="0.585938"/><stop stop-opacity="1" stop-color="rgb(89.94751%, 49.84436%, 0%)" offset="0.59375"/><stop stop-opacity="1" stop-color="rgb(89.826965%, 49.485779%, 0%)" offset="0.601562"/><stop stop-opacity="1" stop-color="rgb(89.707947%, 49.125671%, 0%)" offset="0.609375"/><stop stop-opacity="1" stop-color="rgb(89.587402%, 48.765564%, 0%)" offset="0.617187"/><stop stop-opacity="1" stop-color="rgb(89.468384%, 48.406982%, 0%)" offset="0.625"/><stop stop-opacity="1" stop-color="rgb(89.347839%, 48.046875%, 0%)" offset="0.632812"/><stop stop-opacity="1" stop-color="rgb(89.228821%, 47.686768%, 0%)" offset="0.640625"/><stop stop-opacity="1" stop-color="rgb(89.108276%, 47.328186%, 0%)" offset="0.648437"/><stop stop-opacity="1" stop-color="rgb(88.987732%, 46.968079%, 0%)" offset="0.65625"/><stop stop-opacity="1" stop-color="rgb(88.868713%, 46.607971%, 0%)" offset="0.664062"/><stop stop-opacity="1" stop-color="rgb(88.748169%, 46.247864%, 0%)" offset="0.671875"/><stop stop-opacity="1" stop-color="rgb(88.62915%, 45.889282%, 0%)" offset="0.679687"/><stop stop-opacity="1" stop-color="rgb(88.508606%, 45.529175%, 0%)" offset="0.6875"/><stop stop-opacity="1" stop-color="rgb(88.389587%, 45.169067%, 0%)" offset="0.695312"/><stop stop-opacity="1" stop-color="rgb(88.269043%, 44.810486%, 0%)" offset="0.703125"/><stop stop-opacity="1" stop-color="rgb(88.150024%, 44.450378%, 0%)" offset="0.710937"/><stop stop-opacity="1" stop-color="rgb(88.02948%, 44.090271%, 0%)" offset="0.71875"/><stop stop-opacity="1" stop-color="rgb(87.908936%, 43.731689%, 0%)" offset="0.726562"/><stop stop-opacity="1" stop-color="rgb(87.789917%, 43.371582%, 0%)" offset="0.734375"/><stop stop-opacity="1" stop-color="rgb(87.669373%, 43.011475%, 0%)" offset="0.742187"/><stop stop-opacity="1" stop-color="rgb(87.550354%, 42.652893%, 0%)" offset="0.75"/><stop stop-opacity="1" stop-color="rgb(87.42981%, 42.292786%, 0%)" offset="0.757813"/><stop stop-opacity="1" stop-color="rgb(87.310791%, 41.932678%, 0%)" offset="0.765625"/><stop stop-opacity="1" stop-color="rgb(87.190247%, 41.574097%, 0%)" offset="0.773438"/><stop stop-opacity="1" stop-color="rgb(87.071228%, 41.213989%, 0%)" offset="0.78125"/><stop stop-opacity="1" stop-color="rgb(86.950684%, 40.853882%, 0%)" offset="0.789063"/><stop stop-opacity="1" stop-color="rgb(86.830139%, 40.4953%, 0%)" offset="0.796875"/><stop stop-opacity="1" stop-color="rgb(86.711121%, 40.135193%, 0%)" offset="0.804688"/><stop stop-opacity="1" stop-color="rgb(86.590576%, 39.775085%, 0%)" offset="0.8125"/><stop stop-opacity="1" stop-color="rgb(86.471558%, 39.416504%, 0%)" offset="0.820313"/><stop stop-opacity="1" stop-color="rgb(86.351013%, 39.056396%, 0%)" offset="0.828125"/><stop stop-opacity="1" stop-color="rgb(86.231995%, 38.696289%, 0%)" offset="0.835938"/><stop stop-opacity="1" stop-color="rgb(86.11145%, 38.337708%, 0%)" offset="0.84375"/><stop stop-opacity="1" stop-color="rgb(85.990906%, 37.9776%, 0%)" offset="0.851563"/><stop stop-opacity="1" stop-color="rgb(85.871887%, 37.617493%, 0%)" offset="0.859375"/><stop stop-opacity="1" stop-color="rgb(85.751343%, 37.258911%, 0%)" offset="0.867188"/><stop stop-opacity="1" stop-color="rgb(85.632324%, 36.898804%, 0%)" offset="0.875"/><stop stop-opacity="1" stop-color="rgb(85.51178%, 36.538696%, 0%)" offset="0.882813"/><stop stop-opacity="1" stop-color="rgb(85.392761%, 36.180115%, 0%)" offset="0.890625"/><stop stop-opacity="1" stop-color="rgb(85.272217%, 35.820007%, 0%)" offset="0.898438"/><stop stop-opacity="1" stop-color="rgb(85.153198%, 35.4599%, 0%)" offset="0.90625"/><stop stop-opacity="1" stop-color="rgb(85.032654%, 35.101318%, 0%)" offset="0.914062"/><stop stop-opacity="1" stop-color="rgb(84.912109%, 34.741211%, 0%)" offset="0.921875"/><stop stop-opacity="1" stop-color="rgb(84.793091%, 34.381104%, 0%)" offset="0.929688"/><stop stop-opacity="1" stop-color="rgb(84.672546%, 34.020996%, 0%)" offset="0.9375"/><stop stop-opacity="1" stop-color="rgb(84.553528%, 33.662415%, 0%)" offset="0.945312"/><stop stop-opacity="1" stop-color="rgb(84.432983%, 33.302307%, 0%)" offset="0.953125"/><stop stop-opacity="1" stop-color="rgb(84.313965%, 32.9422%, 0%)" offset="0.960938"/><stop stop-opacity="1" stop-color="rgb(84.19342%, 32.583618%, 0%)" offset="0.96875"/><stop stop-opacity="1" stop-color="rgb(84.074402%, 32.223511%, 0%)" offset="0.976562"/><stop stop-opacity="1" stop-color="rgb(83.953857%, 31.863403%, 0%)" offset="0.984375"/><stop stop-opacity="1" stop-color="rgb(83.833313%, 31.504822%, 0%)" offset="0.992188"/><stop stop-opacity="1" stop-color="rgb(83.714294%, 31.144714%, 0%)" offset="1"/></linearGradient></defs><path fill="#ffcc00" d="M 76.398438 298.601562 C 137.800781 360 237.285156 360 298.601562 298.601562 C 359.914062 237.199219 360 137.714844 298.601562 76.398438 C 237.285156 15 137.714844 15 76.398438 76.398438 C 15.085938 137.800781 15 237.285156 76.398438 298.601562 Z M 76.398438 298.601562 " fill-opacity="0.2" fill-rule="evenodd"/><path fill="#ffcc00" d="M 89.039062 285.960938 C 143.4375 340.359375 231.5625 340.359375 285.875 285.960938 C 340.273438 231.5625 340.273438 143.4375 285.875 89.125 C 231.480469 34.8125 143.351562 34.726562 89.039062 89.125 C 34.726562 143.4375 34.726562 231.5625 89.039062 285.960938 Z M 89.039062 285.960938 " fill-opacity="0.349" fill-rule="evenodd"/><path fill="#ffcc00" d="M 96.722656 278.277344 C 146.851562 328.402344 228.0625 328.402344 278.191406 278.277344 C 328.316406 228.148438 328.316406 146.851562 278.191406 96.808594 C 228.0625 46.765625 146.851562 46.597656 96.722656 96.722656 C 46.597656 146.851562 46.597656 228.148438 96.722656 278.277344 Z M 96.722656 278.277344 " fill-opacity="0.549" fill-rule="evenodd"/><g clip-path="url(#id1)"><g clip-path="url(#id2)"><path fill="url(#id3)" d="M 57.355469 317.644531 L 57.355469 57.355469 L 317.644531 57.355469 L 317.644531 317.644531 Z M 57.355469 317.644531 " fill-rule="nonzero"/></g></g><path fill="#cc3300" d="M 164.101562 71.191406 C 166.066406 71.875 167.945312 72.898438 169.992188 74.605469 C 173.921875 77.9375 178.535156 73.496094 182.207031 75.886719 C 185.960938 78.277344 186.902344 82.121094 190.832031 80.667969 C 194.671875 79.21875 196.464844 76.058594 199.96875 80.15625 C 203.46875 84.257812 205.605469 81.863281 208.335938 81.78125 C 211.070312 81.695312 212.949219 84.339844 215.339844 85.707031 C 217.730469 87.160156 224.734375 85.367188 229.34375 86.476562 C 233.957031 87.585938 233.871094 91.941406 239.164062 92.964844 C 244.375 93.992188 245.824219 90.320312 250.179688 92.453125 C 254.535156 94.589844 254.109375 95.101562 259.148438 95.101562 C 260.257812 95.101562 261.28125 95.1875 262.136719 95.359375 C 234.039062 72.472656 197.832031 64.445312 164.101562 71.191406 Z M 103.640625 271.359375 C 133.957031 301.675781 176.65625 312.179688 215.511719 302.785156 C 206.203125 301.675781 210.472656 289.976562 203.128906 289.976562 C 195.785156 289.976562 185.195312 297.917969 180.753906 293.734375 C 176.3125 289.546875 176.738281 281.007812 167.175781 281.351562 C 157.613281 281.691406 151.378906 288.351562 139.679688 280.921875 C 128.0625 273.492188 126.101562 264.527344 119.011719 265.382812 C 111.925781 266.234375 112.179688 267.089844 103.386719 260.34375 C 98.601562 256.671875 94.417969 256.671875 91.6875 257.4375 C 95.1875 262.222656 99.199219 266.917969 103.640625 271.359375 Z M 256.160156 284.253906 C 261.453125 280.496094 266.578125 276.140625 271.359375 271.359375 C 273.492188 269.222656 275.542969 267.003906 277.507812 264.699219 C 277.507812 264.699219 272.46875 262.5625 262.820312 265.894531 C 253.085938 269.136719 252.65625 265.125 246.082031 259.488281 C 239.507812 253.851562 225.929688 266.917969 216.023438 265.636719 C 206.203125 264.269531 205.261719 249.925781 197.234375 249.496094 C 189.207031 249.070312 177.253906 261.625 168.96875 251.121094 C 160.769531 240.703125 155.816406 248.730469 145.058594 247.960938 C 134.296875 247.191406 137.03125 220.035156 123.710938 221.402344 C 110.386719 222.769531 99.371094 239.335938 91.769531 220.378906 C 87.074219 208.59375 77.425781 206.203125 70.335938 206.117188 C 71.53125 213.460938 73.324219 220.71875 75.886719 227.808594 C 83.742188 226.269531 88.78125 244.886719 99.199219 244.289062 C 109.617188 243.691406 125.503906 235.066406 128.746094 248.644531 C 132.078125 262.222656 143.09375 258.207031 151.71875 258.976562 C 160.34375 259.746094 153.9375 276.140625 169.652344 270.589844 C 185.363281 265.039062 186.644531 271.359375 192.792969 280.921875 C 198.941406 290.488281 221.0625 272.382812 225.929688 275.542969 C 230.882812 278.703125 232.761719 286.472656 243.519531 281.519531 C 254.28125 276.566406 256.074219 283.910156 256.160156 284.253906 Z M 289.632812 247.789062 C 294.160156 240.105469 297.746094 231.992188 300.394531 223.707031 C 298.085938 220.546875 292.535156 220.292969 285.023438 222.683594 C 277.59375 225.074219 274.859375 222.683594 267.429688 217.644531 C 260 212.605469 253.425781 224.476562 243.519531 222.683594 C 233.613281 220.890625 239.078125 212.265625 229.515625 208.335938 C 219.949219 204.492188 211.324219 217.304688 205.347656 212.519531 C 199.371094 207.738281 196.382812 201.164062 186.5625 205.089844 C 176.738281 208.933594 171.957031 203.296875 163.589844 196.125 C 155.21875 188.953125 148.988281 202.101562 137.03125 197.917969 C 125.074219 193.734375 127.464844 173.410156 115.511719 175.203125 C 103.554688 176.996094 96.125 179.984375 91.941406 165.039062 C 89.125 154.964844 79.558594 154.367188 73.582031 155.136719 C 71.703125 161.710938 70.421875 168.371094 69.738281 175.117188 C 70.082031 175.03125 84.683594 172.984375 88.78125 185.109375 C 92.964844 197.320312 104.152344 206.628906 114.144531 200.480469 C 124.136719 194.332031 126.527344 204.066406 134.296875 213.203125 C 142.070312 222.339844 155.050781 210.042969 164.359375 210.640625 C 173.582031 211.238281 172.128906 229.003906 185.707031 238.3125 C 199.285156 247.535156 224.21875 214.742188 229.941406 224.304688 C 235.578125 233.871094 250.863281 232.246094 257.097656 229.941406 C 263.332031 227.722656 270.847656 248.472656 279.640625 243.691406 C 288.4375 238.824219 289.632812 247.789062 289.632812 247.789062 Z M 303.46875 212.351562 C 305.6875 202.015625 306.457031 191.511719 305.859375 181.011719 C 304.320312 176.398438 296.808594 178.019531 293.390625 179.730469 C 289.976562 181.351562 283.570312 187.328125 278.445312 182.546875 C 273.324219 177.765625 273.238281 177.59375 263.332031 180.328125 C 253.511719 182.972656 250.523438 180.328125 246.335938 175.886719 C 242.152344 171.445312 235.152344 179.730469 230.199219 177.851562 C 225.246094 175.972656 227.039062 169.652344 219.183594 171.445312 C 211.238281 173.238281 202.871094 179.984375 198.859375 171.703125 C 194.84375 163.503906 186.476562 159.746094 181.691406 161.113281 C 176.910156 162.480469 171.703125 160.515625 165.382812 155.136719 C 159.148438 149.753906 147.621094 158.722656 145.398438 153.085938 C 143.179688 147.449219 140.191406 144.117188 125.84375 143.351562 C 111.496094 142.582031 112.691406 134.8125 105.347656 125.757812 C 100.566406 119.867188 93.308594 120.636719 88.78125 122 C 86.5625 125.332031 84.597656 128.664062 82.71875 132.164062 C 82.890625 132.164062 85.195312 131.480469 87.332031 133.53125 C 89.550781 135.578125 91.6875 151.632812 106.03125 151.71875 C 120.378906 151.890625 123.625 155.5625 131.136719 166.492188 C 138.566406 177.421875 152.488281 162.90625 159.660156 164.699219 C 166.835938 166.492188 164.441406 178.449219 174.347656 175.628906 C 184.167969 172.8125 179.558594 186.988281 191.855469 196.210938 C 204.066406 205.433594 220.378906 185.449219 224.304688 186.21875 C 228.148438 186.988281 233.101562 195.953125 240.273438 193.5625 C 247.449219 191.171875 250.4375 189.976562 256.839844 196.722656 C 263.246094 203.46875 267.429688 201.503906 275.96875 200.738281 C 284.511719 199.96875 286.304688 212.863281 292.367188 208.761719 C 295.953125 206.203125 300.480469 209.363281 303.46875 212.351562 Z M 303.980469 164.957031 C 302.527344 157.527344 300.394531 150.183594 297.488281 143.09375 C 289.207031 143.4375 287.414062 156.414062 281.351562 153.511719 C 275.203125 150.695312 275.203125 146.167969 270.589844 146.9375 C 265.980469 147.707031 264.355469 149.5 256.585938 144.886719 C 248.8125 140.277344 244.203125 155.648438 234.894531 152.660156 C 225.671875 149.667969 224.5625 134.128906 219.523438 135.066406 C 214.484375 135.921875 206.371094 137.714844 203.726562 133.613281 C 200.992188 129.429688 198.941406 126.441406 193.734375 126.785156 C 188.523438 127.039062 185.792969 127.382812 183.570312 124.390625 C 181.351562 121.402344 179.558594 118.839844 173.410156 118.839844 C 167.261719 118.839844 163.84375 120.292969 161.796875 114.402344 C 159.660156 108.421875 154.195312 104.582031 146.59375 105.179688 C 138.996094 105.777344 136.007812 103.8125 133.1875 96.039062 C 131.566406 91.601562 127.382812 89.210938 123.453125 88.011719 C 116.535156 92.453125 109.960938 97.75 103.898438 103.8125 C 102.871094 104.835938 101.933594 105.863281 100.910156 106.886719 C 110.898438 105.777344 110.644531 107.996094 111.839844 112.609375 C 113.035156 117.21875 116.28125 119.4375 124.820312 119.183594 C 133.359375 118.925781 131.992188 126.527344 138.140625 133.957031 C 144.289062 141.386719 155.476562 129.941406 159.917969 130.199219 C 164.359375 130.457031 162.308594 141.984375 168.710938 140.617188 C 175.117188 139.25 177.082031 139.847656 179.300781 144.972656 C 181.523438 150.011719 187.5 147.023438 198.429688 147.789062 C 209.363281 148.558594 200.820312 159.746094 207.996094 163.332031 C 215.167969 166.917969 227.378906 156.585938 229.769531 161.964844 C 232.164062 167.347656 239.335938 167.601562 244.972656 165.980469 C 250.609375 164.359375 251.804688 175.375 260.34375 175.203125 C 268.882812 175.03125 266.148438 165.46875 277.679688 171.789062 C 289.207031 178.019531 292.792969 172.042969 298.257812 165.636719 C 299.882812 163.761719 301.84375 163.84375 303.980469 164.957031 Z M 292.109375 131.480469 C 288.949219 125.671875 285.363281 120.039062 281.179688 114.65625 C 281.007812 114.65625 276.652344 115.765625 272.554688 112.011719 C 268.371094 108.167969 263.074219 104.75 257.78125 105.605469 C 252.488281 106.460938 249.667969 103.128906 247.449219 100.140625 C 245.226562 97.152344 242.496094 97.835938 237.882812 98.347656 C 233.273438 98.859375 234.554688 97.835938 228.320312 94.503906 C 222.085938 91.257812 218.667969 99.628906 215.679688 97.578125 C 212.691406 95.527344 209.019531 92.625 205.519531 93.136719 C 202.015625 93.648438 198.941406 95.699219 196.550781 95.1875 C 194.160156 94.675781 191.597656 90.746094 187.757812 90.746094 C 183.914062 90.746094 178.875 92.367188 175.714844 90.320312 C 172.554688 88.269531 173.582031 86.476562 168.113281 85.28125 C 162.5625 84.085938 157.097656 86.902344 154.109375 82.121094 C 152.316406 79.21875 148.21875 77.511719 145.3125 76.65625 C 143.519531 77.339844 141.726562 78.109375 139.933594 78.875 C 145.484375 80.839844 142.238281 86.21875 148.816406 89.808594 C 155.390625 93.394531 160.003906 91.601562 162.734375 95.015625 C 165.382812 98.433594 165.894531 101.25 171.703125 100.566406 C 177.507812 99.796875 174.945312 106.714844 178.105469 109.960938 C 181.265625 113.207031 184.683594 108.765625 189.121094 109.789062 C 193.5625 110.8125 192.964844 117.730469 200.136719 117.988281 C 207.3125 118.242188 208.507812 110.644531 215.253906 112.609375 C 222 114.570312 219.097656 117.644531 225.074219 117.046875 C 231.050781 116.449219 231.480469 126.441406 237.03125 124.050781 C 242.582031 121.660156 244.628906 119.097656 247.191406 122 C 249.753906 124.90625 253.167969 128.148438 260 125.757812 C 266.832031 123.367188 272.8125 142.921875 278.703125 135.324219 C 284.511719 127.894531 291.769531 131.308594 292.109375 131.480469 Z M 292.109375 131.480469 " fill-opacity="0.549" fill-rule="evenodd"/><path fill="#e46432" d="M 153.9375 73.753906 C 154.453125 75.972656 156.160156 79.386719 161.796875 79.644531 C 169.992188 79.902344 173.921875 80.242188 175.800781 84.855469 C 177.765625 89.464844 188.523438 82.632812 192.792969 86.648438 C 197.148438 90.660156 198.773438 91.003906 203.726562 90.0625 C 208.679688 89.210938 215.167969 90.574219 215.339844 94.078125 C 215.59375 97.578125 221.574219 90.320312 226.527344 92.027344 C 231.480469 93.648438 231.308594 100.394531 238.054688 100.992188 C 244.800781 101.589844 245.398438 103.8125 248.386719 109.191406 C 251.375 114.570312 258.121094 109.789062 262.988281 113.804688 C 267.941406 117.816406 268.796875 127.722656 274.347656 126.785156 C 279.898438 125.929688 281.863281 121.488281 287.414062 123.710938 C 290.660156 128.746094 293.476562 134.042969 295.867188 139.421875 C 295.613281 139.25 290.230469 135.410156 284.851562 138.738281 C 279.300781 142.15625 272.46875 146.339844 267.261719 137.96875 C 262.050781 129.601562 259.832031 131.820312 253.339844 133.1875 C 246.9375 134.554688 248.898438 124.5625 243.605469 126.441406 C 238.3125 128.320312 233.273438 133.445312 228.40625 126.015625 C 223.453125 118.585938 221.402344 118.414062 215.425781 121.402344 C 209.445312 124.390625 209.363281 117.730469 202.785156 117.730469 C 196.125 117.730469 197.234375 104.582031 190.0625 105.605469 C 182.886719 106.628906 182.121094 103.640625 179.898438 98.601562 C 177.679688 93.5625 173.152344 101.847656 169.566406 95.613281 C 165.980469 89.378906 163.332031 93.648438 157.355469 89.464844 C 151.378906 85.28125 148.386719 89.292969 147.535156 84.257812 C 146.679688 79.21875 142.667969 77.765625 142.667969 77.765625 C 146.253906 76.230469 150.097656 74.863281 153.9375 73.753906 Z M 148.902344 93.050781 C 147.109375 92.796875 145.058594 92.882812 143.09375 93.90625 C 137.886719 96.554688 143.605469 99.457031 147.535156 99.882812 C 150.265625 100.226562 153.9375 99.882812 154.878906 98.089844 C 156.585938 94.929688 150.863281 93.394531 148.902344 93.050781 Z M 73.238281 180.496094 C 71.363281 182.804688 75.460938 184.597656 78.535156 183.058594 C 82.976562 180.925781 76.3125 176.65625 73.238281 180.496094 Z M 173.835938 272.382812 C 170.847656 275.03125 176.3125 277.25 179.472656 277.421875 C 185.363281 277.679688 185.960938 274.007812 183.144531 271.957031 C 181.179688 270.417969 176.738281 269.820312 173.835938 272.382812 Z M 214.742188 253.167969 C 209.789062 257.695312 216.535156 261.792969 221.402344 261.539062 C 229.171875 261.195312 233.015625 255.902344 231.050781 252.65625 C 228.917969 249.070312 219.695312 248.644531 214.742188 253.167969 Z M 156.246094 217.558594 C 149.15625 220.804688 158.890625 224.050781 162.480469 224.050781 C 167.6875 224.050781 168.882812 221.316406 167.601562 219.183594 C 166.066406 216.789062 161.796875 214.996094 156.246094 217.558594 Z M 139.082031 179.132812 C 137.289062 183.742188 147.277344 181.4375 150.609375 181.351562 C 153.855469 181.265625 161.453125 184.511719 161.453125 182.632812 C 161.453125 181.011719 157.953125 176.996094 152.574219 175.460938 C 147.449219 174.09375 140.617188 175.03125 139.082031 179.132812 Z M 280.410156 148.816406 C 281.605469 152.402344 286.132812 149.667969 286.558594 147.535156 C 286.988281 144.714844 278.875 144.289062 280.410156 148.816406 Z M 243.09375 143.691406 C 243.09375 143.691406 244.542969 136.433594 236.859375 134.894531 C 229.085938 133.359375 228.832031 142.070312 231.648438 145.910156 C 234.382812 149.839844 241.554688 149.585938 243.09375 143.691406 Z M 182.375 81.183594 C 182.375 81.183594 181.179688 79.902344 178.875 80.15625 C 176.65625 80.414062 176.226562 83.660156 178.617188 84.769531 C 181.011719 85.878906 184 83.144531 182.375 81.183594 Z M 250.863281 287.753906 C 256.839844 283.996094 262.5625 279.558594 267.941406 274.605469 C 265.808594 274.433594 262.820312 274.433594 258.804688 274.859375 C 248.898438 275.800781 251.375 269.480469 245.398438 267.515625 C 239.421875 265.550781 230.882812 271.53125 222.425781 265.722656 C 213.886719 259.914062 213.203125 262.476562 201.847656 263.503906 C 190.488281 264.527344 186.730469 256.757812 180.328125 252.488281 C 173.921875 248.132812 167.601562 256.074219 159.234375 252.316406 C 150.863281 248.558594 149.667969 240.105469 141.042969 238.738281 C 132.417969 237.371094 125.503906 238.910156 122.257812 229.003906 C 119.011719 219.183594 109.875 221.402344 102.105469 223.023438 C 94.332031 224.648438 95.699219 219.78125 91.769531 205.433594 C 88.867188 194.585938 76.742188 193.820312 69.3125 194.074219 C 69.824219 203.726562 71.53125 213.203125 74.4375 222.511719 C 84.425781 220.378906 91.515625 238.140625 99.882812 246.679688 C 108.253906 255.21875 123.453125 239.164062 126.441406 240.105469 C 129.429688 240.957031 131.480469 254.195312 140.191406 254.109375 C 148.902344 254.023438 154.539062 255.304688 160.085938 263.929688 C 165.636719 272.554688 175.460938 263.585938 186.046875 266.492188 C 196.636719 269.308594 194.246094 282.035156 201.25 285.621094 C 208.25 289.207031 223.621094 275.117188 226.78125 281.605469 C 229.941406 288.097656 238.992188 288.609375 244.714844 286.21875 C 246.851562 285.277344 249.070312 286.304688 250.863281 287.753906 Z M 284.253906 256.074219 C 292.367188 244.714844 298.171875 232.246094 301.761719 219.265625 C 299.367188 217.902344 296.039062 216.449219 292.964844 216.363281 C 287.414062 216.191406 283.570312 218.925781 277.761719 218.414062 C 271.957031 217.902344 274.433594 215.082031 267.6875 212.265625 C 260.941406 209.53125 256.757812 217.132812 252.488281 214.144531 C 248.214844 211.15625 246.9375 213.117188 240.617188 214.144531 C 234.296875 215.167969 235.75 207.054688 228.320312 203.210938 C 220.890625 199.371094 207.910156 212.09375 204.152344 206.714844 C 200.308594 201.335938 191.941406 200.394531 185.109375 201.675781 C 178.277344 203.042969 173.496094 199.199219 169.394531 193.222656 C 165.382812 187.242188 157.269531 186.21875 145.230469 189.464844 C 133.101562 192.710938 132.417969 186.902344 130.113281 181.265625 C 127.808594 175.628906 126.269531 169.3125 117.902344 170.078125 C 109.535156 170.847656 110.898438 163.078125 106.542969 163.84375 C 102.1875 164.613281 95.359375 167.601562 93.222656 157.269531 C 91.601562 149.328125 80.925781 147.109375 76.230469 146.59375 C 73.753906 153.257812 71.960938 160.171875 70.761719 167.175781 C 70.847656 167.175781 72.726562 167.175781 75.375 171.957031 C 78.109375 176.910156 84 170.761719 90.574219 174.007812 C 97.152344 177.253906 100.3125 198.773438 109.105469 195.1875 C 117.902344 191.597656 120.636719 193.222656 126.699219 197.832031 C 132.847656 202.445312 135.066406 201.25 138.484375 208.59375 C 141.898438 215.9375 153.597656 209.445312 163.761719 208.164062 C 173.921875 206.800781 174.945312 211.324219 177.765625 218.585938 C 180.582031 225.929688 192.539062 219.78125 198.941406 229.171875 C 205.347656 238.566406 214.058594 238.394531 221.828125 233.527344 C 229.601562 228.574219 228.574219 235.152344 237.371094 244.289062 C 246.167969 253.425781 257.355469 235.664062 260.511719 239.25 C 263.671875 242.835938 269.136719 253.851562 277.082031 250.863281 C 282.203125 249.070312 283.828125 253 284.253906 256.074219 Z M 305.433594 200.054688 C 306.882812 186.476562 305.945312 172.726562 302.699219 159.40625 C 298.257812 157.011719 293.816406 160.003906 291.171875 163.929688 C 288.4375 167.773438 284.339844 167.773438 280.753906 165.980469 C 277.164062 164.1875 271.613281 159.234375 266.40625 162.394531 C 261.195312 165.554688 254.023438 163.589844 249.667969 160.941406 C 245.3125 158.292969 237.710938 163.761719 235.664062 160.171875 C 233.613281 156.585938 231.90625 156.414062 225.246094 156.929688 C 218.5 157.355469 221.230469 148.386719 213.632812 146.9375 C 206.03125 145.484375 203.640625 147.363281 199.882812 142.753906 C 196.125 138.140625 188.867188 143.179688 184.339844 141.558594 C 179.8125 139.933594 180.496094 130.96875 175.375 132.164062 C 170.335938 133.359375 165.636719 131.738281 165.039062 125.417969 C 164.441406 119.183594 158.464844 122.171875 150.695312 124.988281 C 142.921875 127.808594 139.507812 129.429688 139.507812 124.820312 C 139.507812 120.207031 137.96875 110.300781 128.148438 110.644531 C 118.328125 110.984375 117.5625 109.875 116.535156 102.703125 C 116.109375 99.796875 114.828125 97.152344 113.546875 95.015625 C 110.214844 97.75 106.972656 100.566406 103.8125 103.726562 C 97.492188 110.046875 92.027344 116.960938 87.414062 124.222656 C 88.867188 124.390625 90.832031 124.476562 93.394531 124.308594 C 102.957031 123.710938 105.519531 131.480469 109.535156 141.042969 C 113.546875 150.609375 135.066406 146.59375 137.800781 152.402344 C 140.445312 158.210938 149.753906 159.746094 156.757812 158.550781 C 163.761719 157.355469 165.894531 161.539062 171.359375 167.347656 C 176.910156 173.152344 182.886719 165.296875 190.746094 175.886719 C 198.6875 186.476562 212.265625 178.105469 216.875 176.65625 C 221.488281 175.203125 223.28125 184.253906 228.660156 182.289062 C 234.039062 180.328125 237.199219 184.085938 239.25 187.242188 C 241.300781 190.402344 247.789062 184.597656 255.988281 186.046875 C 264.1875 187.5 262.820312 194.585938 272.894531 191.257812 C 282.886719 188.011719 287.839844 203.46875 294.246094 199.285156 C 300.5625 195.101562 305.347656 199.96875 305.433594 200.054688 Z M 305.433594 200.054688 " fill-opacity="0.549" fill-rule="evenodd"/><path fill="#47077f" d="M 295.441406 138.3125 C 313.972656 265.039062 169.738281 331.136719 89.378906 254.195312 C 93.480469 260.257812 98.261719 265.980469 103.554688 271.359375 C 149.839844 317.644531 224.988281 317.644531 271.273438 271.359375 C 307.3125 235.40625 315.335938 182.035156 295.441406 138.3125 Z M 295.441406 138.3125 " fill-opacity="0.102" fill-rule="evenodd"/></svg>