<svg xmlns="http://www.w3.org/2000/svg" width="375" viewBox="0 0 375 375" height="375" version="1.0"><path fill="#2775CA" d="M 187.5 375 C 291.40625 375 375 291.40625 375 187.5 C 375 83.59375 291.40625 0 187.5 0 C 83.59375 0 0 83.59375 0 187.5 C 0 291.40625 83.59375 375 187.5 375 Z M 187.5 375"/><path fill="#FFF" d="M 239.0625 217.1875 C 239.0625 189.84375 222.65625 180.46875 189.84375 176.5625 C 166.40625 173.4375 161.71875 167.1875 161.71875 156.25 C 161.71875 145.3125 169.53125 138.28125 185.15625 138.28125 C 199.21875 138.28125 207.03125 142.96875 210.9375 154.6875 C 211.71875 157.03125 214.0625 158.59375 216.40625 158.59375 L 228.90625 158.59375 C 232.03125 158.59375 234.375 156.25 234.375 153.125 L 234.375 152.34375 C 231.25 135.15625 217.1875 121.875 199.21875 120.3125 L 199.21875 101.5625 C 199.21875 98.4375 196.875 96.09375 192.96875 95.3125 L 181.25 95.3125 C 178.125 95.3125 175.78125 97.65625 175 101.5625 L 175 119.53125 C 151.5625 122.65625 136.71875 138.28125 136.71875 157.8125 C 136.71875 183.59375 152.34375 193.75 185.15625 197.65625 C 207.03125 201.5625 214.0625 206.25 214.0625 218.75 C 214.0625 231.25 203.125 239.84375 188.28125 239.84375 C 167.96875 239.84375 160.9375 231.25 158.59375 219.53125 C 157.8125 216.40625 155.46875 214.84375 153.125 214.84375 L 139.84375 214.84375 C 136.71875 214.84375 134.375 217.1875 134.375 220.3125 L 134.375 221.09375 C 137.5 240.625 150 254.6875 175.78125 258.59375 L 175.78125 277.34375 C 175.78125 280.46875 178.125 282.8125 182.03125 283.59375 L 193.75 283.59375 C 196.875 283.59375 199.21875 281.25 200 277.34375 L 200 258.59375 C 223.4375 254.6875 239.0625 238.28125 239.0625 217.1875 Z M 239.0625 217.1875"/><path fill="#FFF" d="M 147.65625 299.21875 C 86.71875 277.34375 55.46875 209.375 78.125 149.21875 C 89.84375 116.40625 115.625 91.40625 147.65625 79.6875 C 150.78125 78.125 152.34375 75.78125 152.34375 71.875 L 152.34375 60.9375 C 152.34375 57.8125 150.78125 55.46875 147.65625 54.6875 C 146.875 54.6875 145.3125 54.6875 144.53125 55.46875 C 70.3125 78.90625 29.6875 157.8125 53.125 232.03125 C 67.1875 275.78125 100.78125 309.375 144.53125 323.4375 C 147.65625 325 150.78125 323.4375 151.5625 320.3125 C 152.34375 319.53125 152.34375 318.75 152.34375 317.1875 L 152.34375 306.25 C 152.34375 303.90625 150 300.78125 147.65625 299.21875 Z M 230.46875 55.46875 C 227.34375 53.90625 224.21875 55.46875 223.4375 58.59375 C 222.65625 59.375 222.65625 60.15625 222.65625 61.71875 L 222.65625 72.65625 C 222.65625 75.78125 225 78.90625 227.34375 80.46875 C 288.28125 102.34375 319.53125 170.3125 296.875 230.46875 C 285.15625 263.28125 259.375 288.28125 227.34375 300 C 224.21875 301.5625 222.65625 303.90625 222.65625 307.8125 L 222.65625 318.75 C 222.65625 321.875 224.21875 324.21875 227.34375 325 C 228.125 325 229.6875 325 230.46875 324.21875 C 304.6875 300.78125 345.3125 221.875 321.875 147.65625 C 307.8125 103.125 273.4375 69.53125 230.46875 55.46875 Z M 230.46875 55.46875"/></svg>