<svg xmlns="http://www.w3.org/2000/svg" width="375" viewBox="0 0 375 375" height="375" version="1.0"><defs><clipPath id="a"><path d="M 3.550781 3.550781 L 371.800781 3.550781 L 371.800781 371.800781 L 3.550781 371.800781 Z M 3.550781 3.550781"/></clipPath></defs><g clip-path="url(#a)"><path fill="#FFF" d="M 371.800781 187.675781 C 371.800781 190.691406 371.726562 193.699219 371.578125 196.710938 C 371.429688 199.71875 371.210938 202.726562 370.914062 205.722656 C 370.617188 208.722656 370.25 211.710938 369.808594 214.691406 C 369.367188 217.671875 368.851562 220.640625 368.261719 223.597656 C 367.675781 226.550781 367.015625 229.492188 366.28125 232.414062 C 365.550781 235.339844 364.746094 238.242188 363.871094 241.125 C 362.996094 244.007812 362.054688 246.867188 361.039062 249.707031 C 360.023438 252.542969 358.9375 255.355469 357.785156 258.136719 C 356.632812 260.921875 355.410156 263.675781 354.125 266.398438 C 352.835938 269.125 351.480469 271.816406 350.058594 274.472656 C 348.640625 277.128906 347.15625 279.75 345.605469 282.335938 C 344.054688 284.921875 342.445312 287.464844 340.769531 289.96875 C 339.097656 292.476562 337.363281 294.9375 335.566406 297.359375 C 333.773438 299.78125 331.917969 302.15625 330.007812 304.484375 C 328.09375 306.8125 326.128906 309.09375 324.105469 311.328125 C 322.082031 313.558594 320.003906 315.742188 317.871094 317.871094 C 315.742188 320.003906 313.558594 322.082031 311.328125 324.105469 C 309.09375 326.128906 306.8125 328.09375 304.484375 330.007812 C 302.15625 331.917969 299.78125 333.773438 297.359375 335.566406 C 294.9375 337.363281 292.476562 339.097656 289.96875 340.769531 C 287.464844 342.445312 284.917969 344.054688 282.335938 345.605469 C 279.75 347.15625 277.128906 348.640625 274.472656 350.058594 C 271.816406 351.480469 269.125 352.835938 266.398438 354.125 C 263.675781 355.410156 260.921875 356.632812 258.136719 357.785156 C 255.355469 358.9375 252.542969 360.023438 249.707031 361.039062 C 246.867188 362.054688 244.007812 363 241.125 363.871094 C 238.242188 364.746094 235.335938 365.550781 232.414062 366.28125 C 229.492188 367.015625 226.550781 367.675781 223.597656 368.261719 C 220.640625 368.851562 217.671875 369.367188 214.691406 369.808594 C 211.710938 370.25 208.722656 370.621094 205.722656 370.914062 C 202.726562 371.210938 199.71875 371.429688 196.710938 371.578125 C 193.699219 371.726562 190.691406 371.800781 187.675781 371.800781 C 184.664062 371.800781 181.652344 371.726562 178.640625 371.578125 C 175.632812 371.429688 172.628906 371.210938 169.628906 370.914062 C 166.628906 370.621094 163.640625 370.25 160.660156 369.808594 C 157.679688 369.367188 154.710938 368.851562 151.753906 368.261719 C 148.800781 367.675781 145.859375 367.015625 142.9375 366.28125 C 140.015625 365.550781 137.109375 364.746094 134.226562 363.871094 C 131.34375 363 128.484375 362.054688 125.644531 361.039062 C 122.808594 360.023438 120 358.9375 117.214844 357.785156 C 114.429688 356.632812 111.675781 355.410156 108.953125 354.125 C 106.226562 352.835938 103.539062 351.480469 100.878906 350.058594 C 98.222656 348.640625 95.601562 347.15625 93.015625 345.605469 C 90.433594 344.054688 87.886719 342.445312 85.382812 340.769531 C 82.875 339.097656 80.414062 337.363281 77.992188 335.566406 C 75.574219 333.773438 73.199219 331.917969 70.867188 330.007812 C 68.539062 328.09375 66.257812 326.128906 64.023438 324.105469 C 61.792969 322.082031 59.609375 320.003906 57.480469 317.871094 C 55.347656 315.742188 53.273438 313.558594 51.25 311.328125 C 49.226562 309.09375 47.257812 306.8125 45.34375 304.484375 C 43.433594 302.15625 41.582031 299.78125 39.785156 297.359375 C 37.992188 294.9375 36.257812 292.476562 34.582031 289.96875 C 32.90625 287.464844 31.296875 284.921875 29.746094 282.335938 C 28.199219 279.75 26.710938 277.128906 25.292969 274.472656 C 23.871094 271.816406 22.515625 269.125 21.230469 266.398438 C 19.941406 263.675781 18.71875 260.921875 17.566406 258.136719 C 16.414062 255.355469 15.328125 252.542969 14.3125 249.707031 C 13.300781 246.867188 12.355469 244.007812 11.480469 241.125 C 10.605469 238.242188 9.800781 235.339844 9.070312 232.414062 C 8.335938 229.492188 7.675781 226.550781 7.089844 223.597656 C 6.5 220.640625 5.984375 217.671875 5.542969 214.691406 C 5.101562 211.710938 4.734375 208.722656 4.4375 205.722656 C 4.140625 202.726562 3.921875 199.71875 3.773438 196.710938 C 3.625 193.699219 3.550781 190.691406 3.550781 187.675781 C 3.550781 184.664062 3.625 181.652344 3.773438 178.640625 C 3.921875 175.632812 4.140625 172.628906 4.4375 169.628906 C 4.734375 166.628906 5.101562 163.640625 5.542969 160.660156 C 5.984375 157.679688 6.5 154.710938 7.089844 151.753906 C 7.675781 148.800781 8.335938 145.859375 9.070312 142.9375 C 9.800781 140.015625 10.605469 137.109375 11.480469 134.226562 C 12.355469 131.34375 13.300781 128.484375 14.3125 125.644531 C 15.328125 122.808594 16.414062 120 17.566406 117.214844 C 18.71875 114.429688 19.941406 111.675781 21.230469 108.953125 C 22.515625 106.230469 23.871094 103.539062 25.292969 100.878906 C 26.710938 98.222656 28.199219 95.601562 29.746094 93.015625 C 31.296875 90.433594 32.90625 87.886719 34.582031 85.382812 C 36.257812 82.875 37.992188 80.414062 39.785156 77.992188 C 41.582031 75.574219 43.433594 73.199219 45.34375 70.867188 C 47.257812 68.539062 49.226562 66.257812 51.25 64.027344 C 53.273438 61.792969 55.347656 59.609375 57.480469 57.480469 C 59.609375 55.347656 61.792969 53.273438 64.023438 51.25 C 66.257812 49.226562 68.539062 47.257812 70.867188 45.34375 C 73.199219 43.433594 75.574219 41.582031 77.992188 39.785156 C 80.414062 37.992188 82.875 36.257812 85.382812 34.582031 C 87.886719 32.90625 90.433594 31.296875 93.015625 29.746094 C 95.601562 28.199219 98.222656 26.714844 100.878906 25.292969 C 103.539062 23.871094 106.226562 22.519531 108.953125 21.230469 C 111.675781 19.941406 114.429688 18.71875 117.214844 17.566406 C 120 16.414062 122.808594 15.328125 125.644531 14.3125 C 128.484375 13.300781 131.34375 12.355469 134.226562 11.480469 C 137.109375 10.605469 140.015625 9.800781 142.9375 9.070312 C 145.859375 8.335938 148.800781 7.675781 151.753906 7.089844 C 154.710938 6.5 157.679688 5.984375 160.660156 5.542969 C 163.640625 5.101562 166.628906 4.734375 169.628906 4.4375 C 172.628906 4.140625 175.632812 3.921875 178.640625 3.773438 C 181.652344 3.625 184.664062 3.550781 187.675781 3.550781 C 190.691406 3.550781 193.699219 3.625 196.710938 3.773438 C 199.71875 3.921875 202.726562 4.140625 205.722656 4.4375 C 208.722656 4.734375 211.710938 5.101562 214.691406 5.542969 C 217.671875 5.984375 220.640625 6.5 223.597656 7.089844 C 226.550781 7.675781 229.492188 8.335938 232.414062 9.070312 C 235.335938 9.800781 238.242188 10.605469 241.125 11.480469 C 244.007812 12.355469 246.867188 13.300781 249.707031 14.3125 C 252.542969 15.328125 255.355469 16.414062 258.136719 17.566406 C 260.921875 18.71875 263.675781 19.941406 266.398438 21.230469 C 269.125 22.519531 271.816406 23.871094 274.472656 25.292969 C 277.128906 26.714844 279.75 28.199219 282.335938 29.746094 C 284.921875 31.296875 287.464844 32.90625 289.96875 34.582031 C 292.476562 36.257812 294.9375 37.992188 297.359375 39.785156 C 299.78125 41.582031 302.15625 43.433594 304.484375 45.34375 C 306.8125 47.257812 309.09375 49.226562 311.328125 51.25 C 313.558594 53.273438 315.742188 55.347656 317.871094 57.480469 C 320.003906 59.609375 322.082031 61.792969 324.105469 64.027344 C 326.128906 66.257812 328.09375 68.539062 330.007812 70.867188 C 331.917969 73.199219 333.773438 75.574219 335.566406 77.992188 C 337.363281 80.414062 339.097656 82.875 340.769531 85.382812 C 342.445312 87.886719 344.054688 90.433594 345.605469 93.015625 C 347.15625 95.601562 348.640625 98.222656 350.058594 100.878906 C 351.480469 103.539062 352.835938 106.230469 354.125 108.953125 C 355.410156 111.675781 356.632812 114.429688 357.785156 117.214844 C 358.9375 120 360.023438 122.808594 361.039062 125.644531 C 362.054688 128.484375 362.996094 131.34375 363.871094 134.226562 C 364.746094 137.109375 365.550781 140.015625 366.28125 142.9375 C 367.015625 145.859375 367.675781 148.800781 368.261719 151.753906 C 368.851562 154.710938 369.367188 157.679688 369.808594 160.660156 C 370.25 163.640625 370.617188 166.628906 370.914062 169.628906 C 371.210938 172.628906 371.429688 175.632812 371.578125 178.640625 C 371.726562 181.652344 371.800781 184.664062 371.800781 187.675781 Z M 371.800781 187.675781"/></g><path fill="#5A5564" d="M 305.773438 78.699219 L 295.476562 88.996094 C 296.996094 90.65625 298.472656 92.351562 299.914062 94.082031 C 301.351562 95.808594 302.753906 97.570312 304.109375 99.363281 C 305.46875 101.15625 306.785156 102.980469 308.058594 104.835938 C 309.332031 106.691406 310.5625 108.574219 311.75 110.484375 C 312.9375 112.394531 314.078125 114.335938 315.175781 116.296875 C 316.269531 118.261719 317.320312 120.25 318.328125 122.265625 C 319.332031 124.277344 320.289062 126.3125 321.199219 128.371094 C 322.109375 130.425781 322.972656 132.503906 323.785156 134.601562 C 324.601562 136.699219 325.367188 138.8125 326.082031 140.945312 C 326.800781 143.078125 327.464844 145.226562 328.082031 147.390625 C 328.699219 149.554688 329.265625 151.730469 329.78125 153.921875 C 330.296875 156.113281 330.765625 158.3125 331.179688 160.523438 C 331.59375 162.734375 331.957031 164.953125 332.265625 167.183594 C 332.578125 169.410156 332.839844 171.644531 333.046875 173.886719 C 333.253906 176.125 333.410156 178.371094 333.515625 180.617188 C 333.617188 182.863281 333.671875 185.113281 333.671875 187.363281 C 333.671875 189.613281 333.617188 191.859375 333.515625 194.109375 C 333.410156 196.355469 333.253906 198.601562 333.046875 200.839844 C 332.839844 203.082031 332.578125 205.3125 332.265625 207.542969 C 331.957031 209.769531 331.59375 211.992188 331.179688 214.203125 C 330.765625 216.414062 330.296875 218.613281 329.78125 220.804688 C 329.265625 222.992188 328.699219 225.171875 328.082031 227.332031 C 327.464844 229.496094 326.800781 231.644531 326.082031 233.777344 C 325.367188 235.910156 324.601562 238.027344 323.785156 240.125 C 322.972656 242.21875 322.109375 244.296875 321.199219 246.355469 C 320.289062 248.414062 319.332031 250.449219 318.328125 252.460938 C 317.320312 254.472656 316.269531 256.460938 315.175781 258.425781 C 314.078125 260.390625 312.9375 262.328125 311.75 264.242188 C 310.5625 266.152344 309.332031 268.035156 308.058594 269.890625 C 306.785156 271.742188 305.46875 273.566406 304.109375 275.363281 C 302.753906 277.15625 301.351562 278.917969 299.914062 280.644531 C 298.472656 282.375 296.996094 284.070312 295.476562 285.730469 L 305.773438 296.027344 C 307.460938 294.195312 309.105469 292.324219 310.707031 290.417969 C 312.308594 288.507812 313.863281 286.566406 315.375 284.585938 C 316.886719 282.605469 318.347656 280.589844 319.765625 278.542969 C 321.183594 276.492188 322.550781 274.414062 323.871094 272.300781 C 325.191406 270.1875 326.460938 268.046875 327.683594 265.875 C 328.902344 263.703125 330.070312 261.507812 331.191406 259.28125 C 332.308594 257.054688 333.375 254.804688 334.386719 252.53125 C 335.398438 250.253906 336.359375 247.957031 337.265625 245.636719 C 338.171875 243.316406 339.023438 240.976562 339.820312 238.617188 C 340.617188 236.257812 341.359375 233.878906 342.046875 231.488281 C 342.734375 229.09375 343.363281 226.683594 343.9375 224.261719 C 344.511719 221.835938 345.03125 219.402344 345.492188 216.953125 C 345.953125 214.503906 346.355469 212.046875 346.703125 209.582031 C 347.050781 207.117188 347.339844 204.640625 347.570312 202.164062 C 347.804688 199.683594 347.976562 197.199219 348.09375 194.710938 C 348.207031 192.222656 348.265625 189.734375 348.265625 187.242188 C 348.265625 184.75 348.207031 182.261719 348.09375 179.773438 C 347.976562 177.285156 347.804688 174.800781 347.570312 172.324219 C 347.339844 169.84375 347.050781 167.371094 346.703125 164.902344 C 346.355469 162.4375 345.953125 159.980469 345.492188 157.53125 C 345.03125 155.085938 344.511719 152.648438 343.9375 150.226562 C 343.363281 147.800781 342.734375 145.394531 342.046875 143 C 341.359375 140.605469 340.617188 138.226562 339.820312 135.867188 C 339.023438 133.507812 338.171875 131.167969 337.265625 128.847656 C 336.359375 126.527344 335.398438 124.230469 334.386719 121.957031 C 333.375 119.679688 332.308594 117.429688 331.191406 115.203125 C 330.070312 112.980469 328.902344 110.78125 327.683594 108.609375 C 326.460938 106.4375 325.191406 104.296875 323.871094 102.183594 C 322.550781 100.070312 321.183594 97.992188 319.765625 95.941406 C 318.347656 93.894531 316.886719 91.878906 315.375 89.898438 C 313.863281 87.921875 312.308594 85.976562 310.707031 84.066406 C 309.105469 82.160156 307.460938 80.289062 305.773438 78.460938 Z M 305.773438 78.699219"/><path fill="#5A5564" d="M 89.238281 79.59375 C 90.898438 78.074219 92.589844 76.59375 94.320312 75.15625 C 96.050781 73.714844 97.808594 72.316406 99.605469 70.957031 C 101.398438 69.601562 103.222656 68.285156 105.074219 67.011719 C 106.929688 65.738281 108.8125 64.507812 110.726562 63.320312 C 112.636719 62.132812 114.574219 60.992188 116.539062 59.894531 C 118.503906 58.796875 120.492188 57.746094 122.503906 56.742188 C 124.519531 55.738281 126.554688 54.78125 128.609375 53.867188 C 130.667969 52.957031 132.746094 52.097656 134.84375 51.28125 C 136.941406 50.46875 139.054688 49.703125 141.1875 48.984375 C 143.320312 48.269531 145.46875 47.601562 147.632812 46.984375 C 149.796875 46.367188 151.972656 45.800781 154.160156 45.285156 C 156.351562 44.769531 158.550781 44.304688 160.765625 43.890625 C 162.976562 43.476562 165.195312 43.113281 167.421875 42.800781 C 169.652344 42.492188 171.886719 42.230469 174.125 42.023438 C 176.367188 41.816406 178.609375 41.660156 180.855469 41.554688 C 183.105469 41.449219 185.351562 41.398438 187.601562 41.398438 C 189.851562 41.398438 192.101562 41.449219 194.347656 41.554688 C 196.597656 41.660156 198.839844 41.816406 201.082031 42.023438 C 203.320312 42.230469 205.554688 42.492188 207.78125 42.800781 C 210.011719 43.113281 212.230469 43.476562 214.441406 43.890625 C 216.652344 44.304688 218.855469 44.769531 221.042969 45.285156 C 223.234375 45.800781 225.410156 46.367188 227.574219 46.984375 C 229.738281 47.601562 231.886719 48.269531 234.019531 48.984375 C 236.152344 49.703125 238.265625 50.46875 240.363281 51.28125 C 242.460938 52.097656 244.539062 52.957031 246.59375 53.867188 C 248.652344 54.78125 250.6875 55.738281 252.699219 56.742188 C 254.714844 57.746094 256.703125 58.796875 258.667969 59.894531 C 260.632812 60.992188 262.570312 62.132812 264.480469 63.320312 C 266.390625 64.507812 268.273438 65.738281 270.128906 67.011719 C 271.984375 68.285156 273.808594 69.601562 275.601562 70.957031 C 277.394531 72.316406 279.15625 73.714844 280.886719 75.15625 C 282.613281 76.59375 284.308594 78.074219 285.96875 79.59375 L 296.265625 69.296875 C 294.433594 67.609375 292.566406 65.960938 290.65625 64.363281 C 288.75 62.761719 286.804688 61.203125 284.824219 59.695312 C 282.84375 58.183594 280.832031 56.71875 278.78125 55.300781 C 276.734375 53.886719 274.652344 52.515625 272.542969 51.195312 C 270.429688 49.875 268.289062 48.605469 266.117188 47.386719 C 263.945312 46.164062 261.746094 44.996094 259.519531 43.878906 C 257.296875 42.761719 255.046875 41.695312 252.769531 40.683594 C 250.496094 39.667969 248.195312 38.707031 245.875 37.800781 C 243.558594 36.894531 241.21875 36.042969 238.855469 35.246094 C 236.496094 34.449219 234.121094 33.707031 231.726562 33.019531 C 229.332031 32.335938 226.921875 31.703125 224.5 31.128906 C 222.078125 30.554688 219.640625 30.039062 217.191406 29.578125 C 214.746094 29.117188 212.289062 28.710938 209.820312 28.363281 C 207.355469 28.019531 204.882812 27.730469 202.402344 27.496094 C 199.921875 27.265625 197.4375 27.09375 194.949219 26.976562 C 192.460938 26.859375 189.972656 26.800781 187.484375 26.800781 C 184.992188 26.800781 182.503906 26.859375 180.015625 26.976562 C 177.527344 27.09375 175.042969 27.265625 172.5625 27.496094 C 170.082031 27.730469 167.609375 28.019531 165.144531 28.363281 C 162.675781 28.710938 160.21875 29.117188 157.773438 29.578125 C 155.324219 30.039062 152.890625 30.554688 150.464844 31.128906 C 148.042969 31.703125 145.632812 32.335938 143.238281 33.019531 C 140.84375 33.707031 138.46875 34.449219 136.109375 35.246094 C 133.75 36.042969 131.410156 36.894531 129.089844 37.800781 C 126.769531 38.707031 124.472656 39.667969 122.195312 40.683594 C 119.921875 41.695312 117.671875 42.761719 115.445312 43.878906 C 113.21875 44.996094 111.019531 46.164062 108.847656 47.386719 C 106.679688 48.605469 104.535156 49.875 102.425781 51.195312 C 100.3125 52.515625 98.230469 53.886719 96.183594 55.300781 C 94.136719 56.71875 92.121094 58.183594 90.140625 59.695312 C 88.160156 61.203125 86.214844 62.761719 84.308594 64.363281 C 82.402344 65.960938 80.53125 67.609375 78.699219 69.296875 Z M 89.238281 79.59375"/><path fill="#5A5564" d="M 79.59375 285.832031 C 78.074219 284.171875 76.597656 282.476562 75.160156 280.75 C 73.722656 279.019531 72.324219 277.261719 70.96875 275.46875 C 69.613281 273.675781 68.296875 271.851562 67.023438 269.996094 C 65.753906 268.144531 64.523438 266.261719 63.339844 264.351562 C 62.152344 262.441406 61.011719 260.503906 59.917969 258.539062 C 58.824219 256.574219 57.773438 254.589844 56.769531 252.574219 C 55.765625 250.5625 54.808594 248.53125 53.898438 246.472656 C 52.992188 244.417969 52.128906 242.339844 51.316406 240.246094 C 50.503906 238.148438 49.738281 236.035156 49.023438 233.902344 C 48.308594 231.773438 47.640625 229.625 47.027344 227.464844 C 46.410156 225.300781 45.84375 223.125 45.328125 220.9375 C 44.8125 218.75 44.347656 216.550781 43.933594 214.339844 C 43.519531 212.128906 43.15625 209.910156 42.847656 207.683594 C 42.535156 205.457031 42.277344 203.222656 42.070312 200.984375 C 41.859375 198.746094 41.707031 196.503906 41.601562 194.257812 C 41.496094 192.011719 41.445312 189.765625 41.445312 187.515625 C 41.445312 185.269531 41.496094 183.023438 41.601562 180.777344 C 41.707031 178.53125 41.859375 176.289062 42.070312 174.046875 C 42.277344 171.808594 42.535156 169.578125 42.847656 167.351562 C 43.15625 165.125 43.519531 162.90625 43.933594 160.695312 C 44.347656 158.484375 44.8125 156.285156 45.328125 154.097656 C 45.84375 151.910156 46.410156 149.734375 47.027344 147.570312 C 47.640625 145.410156 48.308594 143.261719 49.023438 141.128906 C 49.738281 139 50.503906 136.886719 51.316406 134.789062 C 52.128906 132.691406 52.992188 130.617188 53.898438 128.558594 C 54.808594 126.503906 55.765625 124.46875 56.769531 122.457031 C 57.773438 120.445312 58.824219 118.457031 59.917969 116.496094 C 61.011719 114.53125 62.152344 112.59375 63.339844 110.683594 C 64.523438 108.773438 65.753906 106.890625 67.023438 105.035156 C 68.296875 103.183594 69.613281 101.359375 70.96875 99.566406 C 72.324219 97.773438 73.722656 96.011719 75.160156 94.285156 C 76.597656 92.554688 78.074219 90.863281 79.59375 89.203125 L 69.296875 78.90625 C 67.609375 80.738281 65.960938 82.605469 64.363281 84.515625 C 62.761719 86.421875 61.203125 88.367188 59.695312 90.347656 C 58.183594 92.328125 56.71875 94.339844 55.300781 96.390625 C 53.886719 98.4375 52.515625 100.519531 51.195312 102.628906 C 49.875 104.742188 48.605469 106.882812 47.386719 109.054688 C 46.164062 111.226562 44.996094 113.425781 43.878906 115.652344 C 42.761719 117.875 41.695312 120.125 40.683594 122.402344 C 39.667969 124.675781 38.707031 126.976562 37.800781 129.292969 C 36.894531 131.613281 36.042969 133.953125 35.246094 136.3125 C 34.449219 138.671875 33.707031 141.050781 33.019531 143.445312 C 32.335938 145.839844 31.703125 148.246094 31.128906 150.671875 C 30.554688 153.09375 30.039062 155.53125 29.578125 157.976562 C 29.117188 160.425781 28.710938 162.882812 28.363281 165.347656 C 28.019531 167.816406 27.730469 170.289062 27.496094 172.769531 C 27.265625 175.25 27.09375 177.734375 26.976562 180.21875 C 26.859375 182.707031 26.800781 185.199219 26.800781 187.6875 C 26.800781 190.179688 26.859375 192.667969 26.976562 195.15625 C 27.09375 197.644531 27.265625 200.128906 27.496094 202.609375 C 27.730469 205.089844 28.019531 207.5625 28.363281 210.027344 C 28.710938 212.496094 29.117188 214.953125 29.578125 217.398438 C 30.039062 219.847656 30.554688 222.28125 31.128906 224.707031 C 31.703125 227.128906 32.335938 229.539062 33.019531 231.933594 C 33.707031 234.328125 34.449219 236.703125 35.246094 239.0625 C 36.042969 241.421875 36.894531 243.761719 37.800781 246.082031 C 38.707031 248.402344 39.667969 250.699219 40.683594 252.976562 C 41.695312 255.25 42.761719 257.5 43.878906 259.726562 C 44.996094 261.953125 46.164062 264.152344 47.386719 266.324219 C 48.605469 268.492188 49.875 270.636719 51.195312 272.746094 C 52.515625 274.859375 53.886719 276.941406 55.300781 278.988281 C 56.71875 281.035156 58.183594 283.050781 59.695312 285.03125 C 61.203125 287.011719 62.761719 288.957031 64.363281 290.863281 C 65.960938 292.769531 67.609375 294.640625 69.296875 296.472656 Z M 79.59375 285.832031"/><path fill="#5A5564" d="M 285.832031 295.339844 C 284.171875 296.855469 282.476562 298.335938 280.75 299.777344 C 279.019531 301.214844 277.257812 302.613281 275.464844 303.972656 C 273.671875 305.332031 271.847656 306.648438 269.992188 307.921875 C 268.136719 309.195312 266.253906 310.425781 264.34375 311.613281 C 262.433594 312.796875 260.492188 313.941406 258.53125 315.035156 C 256.566406 316.132812 254.578125 317.183594 252.5625 318.1875 C 250.550781 319.195312 248.515625 320.152344 246.457031 321.0625 C 244.402344 321.972656 242.324219 322.835938 240.226562 323.648438 C 238.128906 324.464844 236.015625 325.230469 233.882812 325.945312 C 231.75 326.664062 229.601562 327.328125 227.4375 327.945312 C 225.273438 328.5625 223.097656 329.128906 220.90625 329.644531 C 218.714844 330.160156 216.515625 330.625 214.304688 331.042969 C 212.09375 331.457031 209.875 331.816406 207.644531 332.128906 C 205.417969 332.441406 203.183594 332.699219 200.941406 332.910156 C 198.703125 333.117188 196.457031 333.273438 194.210938 333.378906 C 191.964844 333.480469 189.714844 333.535156 187.464844 333.535156 C 185.214844 333.535156 182.96875 333.480469 180.71875 333.378906 C 178.472656 333.273438 176.226562 333.117188 173.988281 332.910156 C 171.75 332.699219 169.515625 332.441406 167.285156 332.128906 C 165.058594 331.816406 162.835938 331.457031 160.625 331.042969 C 158.414062 330.625 156.214844 330.160156 154.023438 329.644531 C 151.835938 329.128906 149.65625 328.5625 147.496094 327.945312 C 145.332031 327.328125 143.183594 326.664062 141.050781 325.945312 C 138.917969 325.230469 136.800781 324.464844 134.707031 323.648438 C 132.609375 322.835938 130.53125 321.972656 128.472656 321.0625 C 126.414062 320.152344 124.378906 319.195312 122.367188 318.1875 C 120.355469 317.183594 118.367188 316.132812 116.402344 315.035156 C 114.4375 313.941406 112.5 312.796875 110.585938 311.613281 C 108.675781 310.425781 106.792969 309.195312 104.9375 307.921875 C 103.085938 306.648438 101.261719 305.332031 99.464844 303.972656 C 97.671875 302.613281 95.910156 301.214844 94.183594 299.777344 C 92.453125 298.335938 90.757812 296.855469 89.097656 295.339844 L 78.804688 305.636719 C 80.632812 307.324219 82.503906 308.96875 84.410156 310.570312 C 86.320312 312.171875 88.261719 313.726562 90.242188 315.238281 C 92.222656 316.75 94.238281 318.210938 96.285156 319.628906 C 98.335938 321.046875 100.414062 322.414062 102.527344 323.734375 C 104.640625 325.054688 106.78125 326.324219 108.953125 327.546875 C 111.125 328.765625 113.320312 329.933594 115.546875 331.050781 C 117.773438 332.171875 120.023438 333.234375 122.300781 334.25 C 124.574219 335.261719 126.871094 336.222656 129.191406 337.128906 C 131.511719 338.035156 133.851562 338.886719 136.210938 339.683594 C 138.570312 340.480469 140.949219 341.222656 143.34375 341.910156 C 145.734375 342.597656 148.144531 343.226562 150.570312 343.800781 C 152.992188 344.375 155.425781 344.894531 157.875 345.355469 C 160.324219 345.816406 162.78125 346.21875 165.246094 346.566406 C 167.710938 346.914062 170.1875 347.203125 172.664062 347.433594 C 175.144531 347.664062 177.628906 347.839844 180.117188 347.957031 C 182.605469 348.070312 185.09375 348.128906 187.585938 348.128906 C 190.078125 348.128906 192.566406 348.070312 195.054688 347.957031 C 197.542969 347.839844 200.027344 347.664062 202.503906 347.433594 C 204.984375 347.203125 207.457031 346.914062 209.925781 346.566406 C 212.390625 346.21875 214.847656 345.816406 217.296875 345.355469 C 219.742188 344.894531 222.179688 344.375 224.601562 343.800781 C 227.027344 343.226562 229.433594 342.597656 231.828125 341.910156 C 234.222656 341.222656 236.601562 340.480469 238.960938 339.683594 C 241.320312 338.886719 243.660156 338.035156 245.980469 337.128906 C 248.300781 336.222656 250.597656 335.261719 252.871094 334.25 C 255.148438 333.234375 257.398438 332.171875 259.625 331.050781 C 261.851562 329.933594 264.046875 328.765625 266.21875 327.546875 C 268.390625 326.324219 270.53125 325.054688 272.644531 323.734375 C 274.757812 322.414062 276.835938 321.046875 278.886719 319.628906 C 280.933594 318.210938 282.949219 316.75 284.929688 315.238281 C 286.910156 313.726562 288.851562 312.171875 290.761719 310.570312 C 292.667969 308.96875 294.539062 307.324219 296.367188 305.636719 Z M 285.832031 295.339844"/><path fill="#F09242" d="M 252.503906 153.144531 C 250.445312 131.660156 231.914062 124.449219 208.46875 122.253906 L 208.46875 92.667969 L 190.347656 92.667969 L 190.347656 121.707031 C 185.578125 121.707031 180.703125 121.707031 175.863281 121.707031 L 175.863281 92.667969 L 157.878906 92.667969 L 157.878906 122.460938 L 121.121094 122.460938 L 121.121094 141.851562 C 121.121094 141.851562 134.507812 141.613281 134.300781 141.851562 C 134.898438 141.785156 135.496094 141.777344 136.097656 141.828125 C 136.695312 141.878906 137.285156 141.984375 137.863281 142.144531 C 138.441406 142.308594 139 142.527344 139.539062 142.796875 C 140.074219 143.066406 140.582031 143.386719 141.058594 143.753906 C 141.535156 144.121094 141.96875 144.53125 142.367188 144.984375 C 142.761719 145.433594 143.113281 145.921875 143.417969 146.441406 C 143.71875 146.960938 143.972656 147.503906 144.167969 148.070312 C 144.367188 148.636719 144.511719 149.21875 144.597656 149.816406 L 144.597656 231.363281 C 144.546875 232.21875 144.328125 233.03125 143.949219 233.800781 C 143.566406 234.566406 143.050781 235.230469 142.402344 235.789062 C 141.761719 236.359375 141.039062 236.78125 140.230469 237.058594 C 139.417969 237.332031 138.585938 237.433594 137.734375 237.371094 C 137.972656 237.574219 124.554688 237.371094 124.554688 237.371094 L 121.121094 259.027344 L 157.535156 259.027344 L 157.535156 289.296875 L 175.660156 289.296875 L 175.660156 259.472656 L 190.144531 259.472656 L 190.144531 289.160156 L 208.300781 289.160156 L 208.300781 259.234375 C 238.914062 257.378906 260.261719 249.828125 262.9375 221.167969 C 265.101562 198.105469 254.257812 187.808594 236.921875 183.65625 C 247.460938 178.472656 253.980469 168.863281 252.503906 153.144531 Z M 227.105469 217.601562 C 227.105469 240.117188 188.53125 237.542969 176.242188 237.542969 L 176.242188 197.589844 C 188.53125 197.625 227.105469 194.089844 227.105469 217.601562 Z M 218.699219 161.3125 C 218.699219 181.90625 186.503906 179.398438 176.277344 179.398438 L 176.277344 143.085938 C 186.503906 143.085938 218.699219 139.859375 218.699219 161.3125 Z M 218.699219 161.3125"/><path fill="#282138" d="M 187.464844 375 C 184.398438 375 181.332031 374.925781 178.265625 374.773438 C 175.203125 374.621094 172.144531 374.394531 169.089844 374.09375 C 166.035156 373.792969 162.992188 373.417969 159.957031 372.96875 C 156.921875 372.515625 153.902344 371.992188 150.890625 371.394531 C 147.882812 370.792969 144.890625 370.121094 141.914062 369.375 C 138.9375 368.628906 135.980469 367.8125 133.046875 366.921875 C 130.109375 366.03125 127.199219 365.066406 124.308594 364.035156 C 121.421875 363 118.558594 361.894531 115.722656 360.722656 C 112.890625 359.546875 110.085938 358.304688 107.3125 356.992188 C 104.539062 355.679688 101.800781 354.300781 99.09375 352.851562 C 96.386719 351.40625 93.71875 349.894531 91.085938 348.316406 C 88.457031 346.738281 85.863281 345.097656 83.3125 343.394531 C 80.761719 341.6875 78.253906 339.921875 75.789062 338.09375 C 73.328125 336.265625 70.910156 334.378906 68.535156 332.429688 C 66.164062 330.484375 63.84375 328.480469 61.570312 326.421875 C 59.296875 324.359375 57.074219 322.246094 54.90625 320.074219 C 52.738281 317.90625 50.621094 315.683594 48.5625 313.410156 C 46.5 311.136719 44.496094 308.8125 42.550781 306.441406 C 40.605469 304.070312 38.71875 301.652344 36.890625 299.1875 C 35.0625 296.722656 33.296875 294.214844 31.59375 291.664062 C 29.886719 289.109375 28.246094 286.519531 26.671875 283.886719 C 25.09375 281.253906 23.582031 278.585938 22.136719 275.878906 C 20.6875 273.175781 19.308594 270.433594 18 267.660156 C 16.6875 264.886719 15.445312 262.082031 14.269531 259.246094 C 13.09375 256.414062 11.992188 253.550781 10.957031 250.664062 C 9.925781 247.773438 8.960938 244.859375 8.070312 241.925781 C 7.179688 238.988281 6.363281 236.03125 5.617188 233.054688 C 4.871094 230.078125 4.199219 227.085938 3.601562 224.078125 C 3.003906 221.066406 2.480469 218.046875 2.027344 215.011719 C 1.578125 211.976562 1.203125 208.929688 0.902344 205.875 C 0.601562 202.824219 0.375 199.765625 0.226562 196.699219 C 0.0742188 193.636719 0 190.566406 0 187.5 C 0 184.429688 0.0742188 181.363281 0.226562 178.300781 C 0.378906 175.234375 0.605469 172.175781 0.90625 169.121094 C 1.207031 166.066406 1.582031 163.023438 2.03125 159.988281 C 2.484375 156.953125 3.007812 153.929688 3.605469 150.917969 C 4.207031 147.910156 4.878906 144.917969 5.625 141.941406 C 6.371094 138.964844 7.1875 136.007812 8.078125 133.070312 C 8.96875 130.132812 9.933594 127.21875 10.964844 124.332031 C 12 121.441406 13.105469 118.582031 14.277344 115.746094 C 15.453125 112.910156 16.695312 110.105469 18.007812 107.332031 C 19.320312 104.558594 20.699219 101.816406 22.148438 99.109375 C 23.59375 96.40625 25.105469 93.734375 26.683594 91.105469 C 28.261719 88.472656 29.902344 85.878906 31.605469 83.328125 C 33.3125 80.777344 35.078125 78.269531 36.90625 75.804688 C 38.734375 73.339844 40.621094 70.921875 42.570312 68.550781 C 44.515625 66.175781 46.519531 63.855469 48.578125 61.582031 C 50.640625 59.308594 52.753906 57.085938 54.925781 54.917969 C 57.09375 52.746094 59.316406 50.632812 61.589844 48.570312 C 63.863281 46.507812 66.1875 44.507812 68.558594 42.558594 C 70.929688 40.613281 73.347656 38.726562 75.8125 36.898438 C 78.277344 35.070312 80.785156 33.304688 83.335938 31.597656 C 85.890625 29.894531 88.480469 28.253906 91.113281 26.675781 C 93.746094 25.097656 96.414062 23.585938 99.121094 22.140625 C 101.824219 20.691406 104.566406 19.3125 107.339844 18 C 110.113281 16.691406 112.917969 15.445312 115.753906 14.273438 C 118.585938 13.097656 121.449219 11.992188 124.335938 10.960938 C 127.226562 9.925781 130.140625 8.964844 133.074219 8.074219 C 136.011719 7.183594 138.96875 6.363281 141.945312 5.617188 C 144.921875 4.875 147.914062 4.203125 150.921875 3.601562 C 153.933594 3.003906 156.953125 2.480469 159.988281 2.03125 C 163.023438 1.578125 166.070312 1.203125 169.125 0.902344 C 172.175781 0.601562 175.234375 0.375 178.300781 0.226562 C 181.363281 0.0742188 184.433594 0 187.5 0 C 190.570312 0 193.636719 0.0742188 196.699219 0.226562 C 199.765625 0.378906 202.824219 0.605469 205.878906 0.90625 C 208.933594 1.207031 211.976562 1.582031 215.011719 2.03125 C 218.046875 2.484375 221.070312 3.007812 224.082031 3.605469 C 227.089844 4.203125 230.082031 4.878906 233.058594 5.621094 C 236.035156 6.367188 238.992188 7.1875 241.929688 8.078125 C 244.867188 8.96875 247.777344 9.929688 250.667969 10.964844 C 253.558594 12 256.417969 13.101562 259.253906 14.277344 C 262.089844 15.449219 264.894531 16.695312 267.667969 18.003906 C 270.441406 19.316406 273.183594 20.695312 275.886719 22.144531 C 278.59375 23.589844 281.265625 25.101562 283.894531 26.679688 C 286.527344 28.257812 289.121094 29.898438 291.671875 31.601562 C 294.222656 33.304688 296.730469 35.070312 299.195312 36.898438 C 301.660156 38.726562 304.078125 40.613281 306.449219 42.5625 C 308.824219 44.507812 311.144531 46.511719 313.417969 48.570312 C 315.691406 50.632812 317.914062 52.746094 320.082031 54.914062 C 322.253906 57.085938 324.367188 59.304688 326.429688 61.578125 C 328.492188 63.851562 330.492188 66.175781 332.441406 68.546875 C 334.386719 70.917969 336.273438 73.335938 338.101562 75.800781 C 339.929688 78.265625 341.695312 80.773438 343.402344 83.324219 C 345.105469 85.875 346.746094 88.464844 348.324219 91.097656 C 349.902344 93.726562 351.414062 96.394531 352.859375 99.101562 C 354.308594 101.808594 355.6875 104.546875 357 107.320312 C 358.308594 110.09375 359.554688 112.898438 360.726562 115.730469 C 361.902344 118.566406 363.007812 121.425781 364.039062 124.316406 C 365.074219 127.203125 366.035156 130.117188 366.925781 133.050781 C 367.816406 135.988281 368.636719 138.941406 369.382812 141.917969 C 370.125 144.894531 370.796875 147.886719 371.398438 150.894531 C 371.996094 153.90625 372.519531 156.925781 372.96875 159.960938 C 373.421875 162.996094 373.796875 166.039062 374.097656 169.09375 C 374.398438 172.144531 374.625 175.203125 374.773438 178.269531 C 374.925781 181.332031 375 184.398438 375 187.464844 C 375 190.535156 374.925781 193.601562 374.777344 196.667969 C 374.628906 199.730469 374.402344 202.792969 374.101562 205.84375 C 373.804688 208.898438 373.429688 211.945312 372.980469 214.980469 C 372.53125 218.015625 372.007812 221.039062 371.410156 224.046875 C 370.808594 227.058594 370.140625 230.050781 369.394531 233.027344 C 368.648438 236.003906 367.832031 238.960938 366.941406 241.898438 C 366.050781 244.835938 365.089844 247.75 364.054688 250.640625 C 363.023438 253.527344 361.917969 256.390625 360.746094 259.226562 C 359.570312 262.0625 358.328125 264.867188 357.015625 267.640625 C 355.703125 270.417969 354.324219 273.15625 352.878906 275.863281 C 351.433594 278.570312 349.921875 281.238281 348.34375 283.871094 C 346.765625 286.503906 345.125 289.097656 343.417969 291.648438 C 341.714844 294.199219 339.945312 296.710938 338.117188 299.175781 C 336.289062 301.640625 334.402344 304.058594 332.457031 306.429688 C 330.507812 308.804688 328.503906 311.128906 326.445312 313.402344 C 324.382812 315.675781 322.265625 317.898438 320.097656 320.066406 C 317.925781 322.238281 315.703125 324.355469 313.429688 326.414062 C 311.15625 328.476562 308.832031 330.480469 306.460938 332.429688 C 304.085938 334.375 301.667969 336.261719 299.203125 338.089844 C 296.738281 339.921875 294.226562 341.6875 291.675781 343.390625 C 289.125 345.097656 286.53125 346.738281 283.898438 348.316406 C 281.265625 349.894531 278.59375 351.40625 275.886719 352.855469 C 273.179688 354.300781 270.4375 355.679688 267.664062 356.992188 C 264.890625 358.304688 262.082031 359.546875 259.246094 360.722656 C 256.410156 361.898438 253.546875 363.003906 250.65625 364.035156 C 247.769531 365.070312 244.855469 366.03125 241.917969 366.925781 C 238.980469 367.816406 236.019531 368.632812 233.042969 369.378906 C 230.066406 370.125 227.070312 370.796875 224.058594 371.394531 C 221.050781 371.996094 218.027344 372.519531 214.988281 372.96875 C 211.953125 373.421875 208.90625 373.796875 205.851562 374.097656 C 202.796875 374.398438 199.734375 374.625 196.667969 374.773438 C 193.605469 374.925781 190.535156 375 187.464844 375 Z M 187.464844 14.621094 C 184.640625 14.625 181.8125 14.695312 178.992188 14.835938 C 176.167969 14.976562 173.347656 15.1875 170.535156 15.464844 C 167.722656 15.746094 164.917969 16.09375 162.121094 16.511719 C 159.324219 16.925781 156.542969 17.414062 153.769531 17.964844 C 150.996094 18.519531 148.242188 19.140625 145.5 19.828125 C 142.757812 20.519531 140.035156 21.273438 137.328125 22.097656 C 134.625 22.917969 131.941406 23.808594 129.28125 24.761719 C 126.621094 25.714844 123.984375 26.734375 121.375 27.820312 C 118.761719 28.902344 116.179688 30.050781 113.625 31.261719 C 111.070312 32.46875 108.546875 33.742188 106.054688 35.078125 C 103.5625 36.410156 101.105469 37.804688 98.679688 39.261719 C 96.257812 40.714844 93.871094 42.230469 91.519531 43.800781 C 89.171875 45.375 86.863281 47 84.59375 48.6875 C 82.324219 50.371094 80.097656 52.113281 77.914062 53.90625 C 75.726562 55.703125 73.589844 57.550781 71.496094 59.449219 C 69.402344 61.347656 67.355469 63.296875 65.359375 65.296875 C 63.363281 67.300781 61.414062 69.347656 59.515625 71.441406 C 57.621094 73.539062 55.773438 75.679688 53.984375 77.867188 C 52.191406 80.050781 50.453125 82.28125 48.769531 84.550781 C 47.085938 86.824219 45.460938 89.136719 43.894531 91.484375 C 42.324219 93.835938 40.8125 96.226562 39.359375 98.652344 C 37.910156 101.078125 36.515625 103.535156 35.1875 106.03125 C 33.855469 108.523438 32.585938 111.050781 31.378906 113.605469 C 30.171875 116.160156 29.027344 118.746094 27.945312 121.359375 C 26.867188 123.96875 25.851562 126.605469 24.898438 129.269531 C 23.949219 131.929688 23.0625 134.613281 22.242188 137.320312 C 21.421875 140.027344 20.671875 142.75 19.984375 145.492188 C 19.300781 148.234375 18.683594 150.992188 18.132812 153.765625 C 17.582031 156.539062 17.101562 159.324219 16.6875 162.121094 C 16.273438 164.917969 15.929688 167.722656 15.652344 170.535156 C 15.375 173.347656 15.167969 176.167969 15.03125 178.988281 C 14.894531 181.8125 14.824219 184.640625 14.828125 187.464844 C 14.828125 190.292969 14.898438 193.117188 15.039062 195.941406 C 15.179688 198.765625 15.386719 201.582031 15.664062 204.394531 C 15.945312 207.210938 16.289062 210.015625 16.707031 212.808594 C 17.121094 215.605469 17.605469 218.390625 18.160156 221.164062 C 18.710938 223.933594 19.332031 226.691406 20.019531 229.433594 C 20.707031 232.175781 21.460938 234.898438 22.28125 237.605469 C 23.105469 240.308594 23.992188 242.992188 24.945312 245.652344 C 25.898438 248.316406 26.914062 250.953125 28 253.5625 C 29.082031 256.175781 30.226562 258.757812 31.4375 261.3125 C 32.644531 263.867188 33.917969 266.390625 35.25 268.882812 C 36.582031 271.378906 37.976562 273.835938 39.429688 276.261719 C 40.886719 278.683594 42.398438 281.070312 43.96875 283.421875 C 45.539062 285.773438 47.167969 288.082031 48.851562 290.351562 C 50.535156 292.621094 52.277344 294.851562 54.070312 297.035156 C 55.863281 299.21875 57.710938 301.359375 59.609375 303.453125 C 61.507812 305.546875 63.457031 307.59375 65.457031 309.59375 C 67.457031 311.589844 69.503906 313.539062 71.597656 315.4375 C 73.691406 317.335938 75.832031 319.179688 78.019531 320.972656 C 80.203125 322.765625 82.433594 324.503906 84.703125 326.1875 C 86.972656 327.871094 89.285156 329.5 91.636719 331.070312 C 93.984375 332.640625 96.375 334.152344 98.796875 335.605469 C 101.222656 337.058594 103.683594 338.449219 106.175781 339.78125 C 108.667969 341.113281 111.195312 342.382812 113.75 343.59375 C 116.304688 344.800781 118.886719 345.945312 121.5 347.027344 C 124.113281 348.109375 126.75 349.125 129.410156 350.078125 C 132.074219 351.03125 134.753906 351.917969 137.460938 352.738281 C 140.167969 353.558594 142.890625 354.3125 145.632812 354.996094 C 148.375 355.683594 151.132812 356.304688 153.90625 356.855469 C 156.675781 357.40625 159.460938 357.890625 162.257812 358.304688 C 165.054688 358.71875 167.859375 359.0625 170.671875 359.339844 C 173.484375 359.617188 176.304688 359.828125 179.128906 359.964844 C 181.949219 360.105469 184.777344 360.171875 187.601562 360.171875 C 190.429688 360.171875 193.253906 360.105469 196.078125 359.964844 C 198.902344 359.828125 201.71875 359.617188 204.535156 359.339844 C 207.347656 359.0625 210.152344 358.71875 212.949219 358.304688 C 215.746094 357.890625 218.527344 357.40625 221.300781 356.855469 C 224.074219 356.304688 226.832031 355.683594 229.574219 354.996094 C 232.316406 354.3125 235.039062 353.558594 237.746094 352.738281 C 240.449219 351.917969 243.132812 351.03125 245.796875 350.078125 C 248.457031 349.125 251.09375 348.109375 253.707031 347.027344 C 256.316406 345.945312 258.902344 344.800781 261.457031 343.59375 C 264.011719 342.382812 266.535156 341.113281 269.03125 339.78125 C 271.523438 338.449219 273.980469 337.058594 276.40625 335.605469 C 278.832031 334.152344 281.21875 332.640625 283.570312 331.070312 C 285.921875 329.5 288.230469 327.871094 290.503906 326.1875 C 292.773438 324.503906 295.003906 322.765625 297.1875 320.972656 C 299.375 319.179688 301.511719 317.335938 303.609375 315.4375 C 305.703125 313.539062 307.75 311.589844 309.75 309.59375 C 311.75 307.59375 313.699219 305.546875 315.597656 303.453125 C 317.496094 301.359375 319.34375 299.21875 321.136719 297.035156 C 322.929688 294.851562 324.667969 292.621094 326.355469 290.351562 C 328.039062 288.082031 329.664062 285.773438 331.238281 283.421875 C 332.808594 281.070312 334.320312 278.683594 335.773438 276.261719 C 337.230469 273.835938 338.621094 271.378906 339.957031 268.882812 C 341.289062 266.390625 342.558594 263.867188 343.769531 261.3125 C 344.980469 258.757812 346.125 256.175781 347.207031 253.5625 C 348.289062 250.953125 349.308594 248.316406 350.261719 245.652344 C 351.214844 242.992188 352.101562 240.308594 352.921875 237.605469 C 353.746094 234.898438 354.5 232.175781 355.1875 229.433594 C 355.875 226.691406 356.496094 223.933594 357.046875 221.164062 C 357.601562 218.390625 358.082031 215.605469 358.5 212.808594 C 358.914062 210.015625 359.261719 207.210938 359.539062 204.394531 C 359.820312 201.582031 360.027344 198.765625 360.167969 195.941406 C 360.308594 193.117188 360.378906 190.292969 360.378906 187.464844 C 360.378906 184.636719 360.3125 181.808594 360.171875 178.980469 C 360.035156 176.15625 359.828125 173.332031 359.550781 170.515625 C 359.277344 167.703125 358.929688 164.894531 358.515625 162.09375 C 358.101562 159.296875 357.617188 156.507812 357.066406 153.730469 C 356.515625 150.957031 355.898438 148.195312 355.210938 145.453125 C 354.523438 142.707031 353.769531 139.980469 352.949219 137.273438 C 352.128906 134.5625 351.238281 131.878906 350.285156 129.210938 C 349.335938 126.546875 348.316406 123.910156 347.234375 121.292969 C 346.152344 118.679688 345.003906 116.09375 343.796875 113.535156 C 342.585938 110.976562 341.3125 108.449219 339.980469 105.953125 C 338.644531 103.460938 337.25 100.996094 335.796875 98.570312 C 334.34375 96.144531 332.828125 93.753906 331.257812 91.402344 C 329.683594 89.046875 328.054688 86.734375 326.367188 84.460938 C 324.683594 82.191406 322.941406 79.960938 321.148438 77.773438 C 319.351562 75.585938 317.503906 73.445312 315.601562 71.347656 C 313.703125 69.25 311.75 67.203125 309.75 65.203125 C 307.75 63.199219 305.699219 61.25 303.601562 59.351562 C 301.503906 57.453125 299.363281 55.605469 297.175781 53.808594 C 294.988281 52.015625 292.753906 50.273438 290.480469 48.589844 C 288.207031 46.90625 285.894531 45.277344 283.542969 43.707031 C 281.1875 42.132812 278.796875 40.621094 276.371094 39.167969 C 273.941406 37.714844 271.480469 36.320312 268.984375 34.988281 C 266.488281 33.65625 263.960938 32.382812 261.402344 31.175781 C 258.84375 29.964844 256.257812 28.820312 253.640625 27.738281 C 251.027344 26.660156 248.386719 25.640625 245.722656 24.691406 C 243.058594 23.738281 240.371094 22.851562 237.664062 22.03125 C 234.953125 21.210938 232.226562 20.460938 229.480469 19.773438 C 226.738281 19.085938 223.976562 18.46875 221.199219 17.917969 C 218.425781 17.367188 215.636719 16.886719 212.835938 16.472656 C 210.039062 16.058594 207.230469 15.714844 204.414062 15.441406 C 201.597656 15.164062 198.777344 14.960938 195.949219 14.824219 C 193.125 14.6875 190.296875 14.617188 187.464844 14.621094 Z M 187.464844 14.621094"/></svg>