<svg xmlns="http://www.w3.org/2000/svg" width="375" viewBox="0 0 375 375" height="375" version="1.0"><defs><clipPath id="a"><path d="M 7.101562 0 L 375 0 L 375 368.25 L 7.101562 368.25 Z M 7.101562 0"/></clipPath><clipPath id="b"><path d="M 185 22.019531 L 289.15625 22.019531 L 289.15625 251 L 185 251 Z M 185 22.019531"/></clipPath><clipPath id="c"><path d="M 85.90625 22.019531 L 188 22.019531 L 188 251 L 85.90625 251 Z M 85.90625 22.019531"/></clipPath><clipPath id="d"><path d="M 186 209 L 289.15625 209 L 289.15625 352.769531 L 186 352.769531 Z M 186 209"/></clipPath><clipPath id="e"><path d="M 85.90625 209 L 188 209 L 188 352.769531 L 85.90625 352.769531 Z M 85.90625 209"/></clipPath><clipPath id="f"><path d="M 187 144 L 289.15625 144 L 289.15625 251 L 187 251 Z M 187 144"/></clipPath><clipPath id="g"><path d="M 85.90625 144 L 188 144 L 188 251 L 85.90625 251 Z M 85.90625 144"/></clipPath></defs><g clip-path="url(#a)"><path fill="#FFF" d="M 375.351562 184.125 C 375.351562 187.136719 375.277344 190.148438 375.128906 193.160156 C 374.984375 196.167969 374.761719 199.171875 374.464844 202.171875 C 374.171875 205.171875 373.800781 208.160156 373.359375 211.140625 C 372.917969 214.121094 372.402344 217.089844 371.8125 220.046875 C 371.226562 223 370.566406 225.941406 369.835938 228.863281 C 369.101562 231.785156 368.296875 234.691406 367.425781 237.574219 C 366.550781 240.457031 365.605469 243.316406 364.589844 246.15625 C 363.574219 248.992188 362.488281 251.800781 361.335938 254.585938 C 360.183594 257.371094 358.960938 260.125 357.675781 262.847656 C 356.386719 265.574219 355.03125 268.261719 353.609375 270.921875 C 352.191406 273.578125 350.707031 276.199219 349.15625 278.785156 C 347.605469 281.367188 345.996094 283.914062 344.320312 286.417969 C 342.648438 288.925781 340.914062 291.386719 339.117188 293.808594 C 337.324219 296.226562 335.46875 298.601562 333.558594 300.933594 C 331.644531 303.261719 329.679688 305.542969 327.65625 307.777344 C 325.632812 310.007812 323.554688 312.191406 321.421875 314.320312 C 319.292969 316.453125 317.109375 318.527344 314.878906 320.550781 C 312.644531 322.578125 310.363281 324.542969 308.035156 326.457031 C 305.707031 328.367188 303.332031 330.21875 300.910156 332.015625 C 298.488281 333.808594 296.027344 335.546875 293.523438 337.21875 C 291.015625 338.894531 288.472656 340.503906 285.886719 342.054688 C 283.300781 343.601562 280.679688 345.089844 278.023438 346.507812 C 275.367188 347.929688 272.675781 349.285156 269.949219 350.570312 C 267.226562 351.859375 264.472656 353.082031 261.6875 354.234375 C 258.90625 355.386719 256.09375 356.472656 253.257812 357.488281 C 250.417969 358.5 247.558594 359.445312 244.675781 360.320312 C 241.792969 361.195312 238.890625 362 235.964844 362.730469 C 233.042969 363.464844 230.105469 364.125 227.148438 364.710938 C 224.191406 365.300781 221.226562 365.816406 218.242188 366.257812 C 215.261719 366.699219 212.273438 367.066406 209.273438 367.363281 C 206.277344 367.660156 203.273438 367.878906 200.261719 368.027344 C 197.253906 368.175781 194.242188 368.25 191.226562 368.25 C 188.214844 368.25 185.203125 368.175781 182.191406 368.027344 C 179.183594 367.878906 176.179688 367.660156 173.179688 367.363281 C 170.179688 367.066406 167.191406 366.699219 164.210938 366.257812 C 161.230469 365.816406 158.261719 365.300781 155.304688 364.710938 C 152.351562 364.125 149.410156 363.464844 146.488281 362.730469 C 143.566406 362 140.664062 361.195312 137.777344 360.320312 C 134.894531 359.445312 132.035156 358.5 129.199219 357.488281 C 126.359375 356.472656 123.550781 355.386719 120.765625 354.234375 C 117.980469 353.082031 115.226562 351.859375 112.503906 350.570312 C 109.78125 349.285156 107.089844 347.929688 104.429688 346.507812 C 101.773438 345.089844 99.152344 343.601562 96.566406 342.054688 C 93.984375 340.503906 91.4375 338.894531 88.933594 337.21875 C 86.425781 335.546875 83.964844 333.808594 81.542969 332.015625 C 79.125 330.21875 76.75 328.367188 74.417969 326.457031 C 72.089844 324.542969 69.808594 322.578125 67.578125 320.550781 C 65.34375 318.527344 63.160156 316.453125 61.03125 314.320312 C 58.902344 312.191406 56.824219 310.007812 54.800781 307.777344 C 52.777344 305.542969 50.808594 303.261719 48.898438 300.933594 C 46.984375 298.601562 45.132812 296.226562 43.335938 293.808594 C 41.542969 291.386719 39.808594 288.925781 38.132812 286.417969 C 36.457031 283.914062 34.847656 281.367188 33.296875 278.785156 C 31.75 276.199219 30.265625 273.578125 28.84375 270.921875 C 27.421875 268.261719 26.070312 265.574219 24.78125 262.847656 C 23.492188 260.125 22.269531 257.371094 21.117188 254.585938 C 19.964844 251.800781 18.878906 248.992188 17.867188 246.15625 C 16.851562 243.316406 15.90625 240.457031 15.03125 237.574219 C 14.15625 234.691406 13.351562 231.785156 12.621094 228.863281 C 11.886719 225.941406 11.226562 223 10.640625 220.046875 C 10.050781 217.089844 9.539062 214.121094 9.09375 211.140625 C 8.652344 208.160156 8.285156 205.171875 7.988281 202.171875 C 7.695312 199.171875 7.472656 196.167969 7.324219 193.160156 C 7.175781 190.148438 7.101562 187.136719 7.101562 184.125 C 7.101562 181.113281 7.175781 178.101562 7.324219 175.089844 C 7.472656 172.082031 7.695312 169.078125 7.988281 166.078125 C 8.285156 163.078125 8.652344 160.089844 9.09375 157.109375 C 9.539062 154.128906 10.050781 151.160156 10.640625 148.203125 C 11.226562 145.25 11.886719 142.308594 12.621094 139.386719 C 13.351562 136.464844 14.15625 133.558594 15.03125 130.675781 C 15.90625 127.792969 16.851562 124.933594 17.867188 122.09375 C 18.878906 119.257812 19.964844 116.449219 21.117188 113.664062 C 22.269531 110.878906 23.492188 108.125 24.78125 105.402344 C 26.070312 102.675781 27.421875 99.988281 28.84375 97.328125 C 30.265625 94.671875 31.75 92.050781 33.296875 89.464844 C 34.847656 86.882812 36.457031 84.335938 38.132812 81.832031 C 39.808594 79.324219 41.542969 76.863281 43.335938 74.441406 C 45.132812 72.023438 46.984375 69.648438 48.898438 67.316406 C 50.808594 64.988281 52.777344 62.707031 54.800781 60.472656 C 56.824219 58.242188 58.902344 56.058594 61.03125 53.929688 C 63.160156 51.796875 65.34375 49.722656 67.578125 47.699219 C 69.808594 45.671875 72.089844 43.707031 74.417969 41.792969 C 76.75 39.882812 79.125 38.03125 81.542969 36.234375 C 83.964844 34.4375 86.425781 32.703125 88.933594 31.03125 C 91.4375 29.355469 93.984375 27.746094 96.566406 26.195312 C 99.152344 24.648438 101.773438 23.160156 104.429688 21.742188 C 107.089844 20.320312 109.78125 18.964844 112.503906 17.679688 C 115.226562 16.390625 117.980469 15.167969 120.765625 14.015625 C 123.550781 12.863281 126.359375 11.777344 129.199219 10.761719 C 132.035156 9.746094 134.894531 8.804688 137.777344 7.929688 C 140.664062 7.054688 143.566406 6.25 146.488281 5.519531 C 149.410156 4.785156 152.351562 4.125 155.304688 3.539062 C 158.261719 2.949219 161.230469 2.433594 164.210938 1.992188 C 167.191406 1.550781 170.179688 1.183594 173.179688 0.886719 C 176.179688 0.589844 179.183594 0.371094 182.191406 0.222656 C 185.203125 0.0742188 188.214844 0 191.226562 0 C 194.242188 0 197.253906 0.0742188 200.261719 0.222656 C 203.273438 0.371094 206.277344 0.589844 209.273438 0.886719 C 212.273438 1.183594 215.261719 1.550781 218.242188 1.992188 C 221.226562 2.433594 224.191406 2.949219 227.148438 3.539062 C 230.105469 4.125 233.042969 4.785156 235.964844 5.519531 C 238.890625 6.25 241.792969 7.054688 244.675781 7.929688 C 247.558594 8.804688 250.417969 9.746094 253.257812 10.761719 C 256.09375 11.777344 258.90625 12.863281 261.6875 14.015625 C 264.472656 15.167969 267.226562 16.390625 269.949219 17.679688 C 272.675781 18.964844 275.367188 20.320312 278.023438 21.742188 C 280.679688 23.160156 283.300781 24.648438 285.886719 26.195312 C 288.472656 27.746094 291.015625 29.355469 293.523438 31.03125 C 296.027344 32.703125 298.488281 34.4375 300.910156 36.234375 C 303.332031 38.03125 305.707031 39.882812 308.035156 41.792969 C 310.363281 43.707031 312.644531 45.671875 314.878906 47.699219 C 317.109375 49.722656 319.292969 51.796875 321.421875 53.929688 C 323.554688 56.058594 325.632812 58.242188 327.65625 60.472656 C 329.679688 62.707031 331.644531 64.988281 333.558594 67.316406 C 335.46875 69.648438 337.324219 72.023438 339.117188 74.441406 C 340.914062 76.863281 342.648438 79.324219 344.320312 81.832031 C 345.996094 84.335938 347.605469 86.882812 349.15625 89.464844 C 350.707031 92.050781 352.191406 94.671875 353.609375 97.328125 C 355.03125 99.988281 356.386719 102.675781 357.675781 105.402344 C 358.960938 108.125 360.183594 110.878906 361.335938 113.664062 C 362.488281 116.449219 363.574219 119.257812 364.589844 122.09375 C 365.605469 124.933594 366.550781 127.792969 367.425781 130.675781 C 368.296875 133.558594 369.101562 136.464844 369.835938 139.386719 C 370.566406 142.308594 371.226562 145.25 371.8125 148.203125 C 372.402344 151.160156 372.917969 154.128906 373.359375 157.109375 C 373.800781 160.089844 374.171875 163.078125 374.464844 166.078125 C 374.761719 169.078125 374.984375 172.082031 375.128906 175.089844 C 375.277344 178.101562 375.351562 181.113281 375.351562 184.125 Z M 375.351562 184.125"/></g><g clip-path="url(#b)"><path fill="#343434" d="M 187.5 22.054688 L 185.277344 29.589844 L 185.277344 248.238281 L 187.5 250.453125 L 289.09375 190.460938 Z M 187.5 22.054688"/></g><g clip-path="url(#c)"><path fill="#8C8C8C" d="M 187.5 22.054688 L 85.90625 190.460938 L 187.5 250.453125 Z M 187.5 22.054688"/></g><g clip-path="url(#d)"><path fill="#3C3C3B" d="M 187.5 269.667969 L 186.25 271.195312 L 186.25 349.082031 L 187.5 352.730469 L 289.15625 209.707031 Z M 187.5 269.667969"/></g><g clip-path="url(#e)"><path fill="#8C8C8C" d="M 187.5 352.730469 L 187.5 269.667969 L 85.90625 209.707031 Z M 187.5 352.730469"/></g><g clip-path="url(#f)"><path fill="#141414" d="M 187.5 250.453125 L 289.09375 190.460938 L 187.5 144.328125 Z M 187.5 250.453125"/></g><g clip-path="url(#g)"><path fill="#393939" d="M 85.90625 190.460938 L 187.5 250.453125 L 187.5 144.328125 Z M 85.90625 190.460938"/></g></svg>